<svg id="Layer_1" data-name="Layer 1" xmlns="http://www.w3.org/2000/svg" viewBox="0 0 150 60"><defs><style>.cls-1{fill:#cb0101;}.cls-2{fill:#303030;}</style></defs><path class="cls-1" d="M22.27,16.73a6.83,6.83,0,0,1,1.55.78l8.39,4.95c.09.06.2.08.25.19s-.15.12-.23.17L26.79,26a.44.44,0,0,1-.5,0c-1.28-.75-2.56-1.47-3.84-2.22a1.07,1.07,0,0,0-1.19,0c-1.5.87-3,1.75-4.51,2.6a1.16,1.16,0,0,0-.64,1.11c0,1.46,0,2.92,0,4.37a.36.36,0,0,1-.19.37l-5.54,3.17-.14.07v-.35c0-3.49,0-7,0-10.46a2.37,2.37,0,0,1,1.23-2.16l9.18-5.41a7.19,7.19,0,0,1,.76-.32Z"/><path class="cls-2" d="M104.3,28.25l-1.53,3.08c-.74,1.5-1.49,3-2.22,4.49a.42.42,0,0,1-.47.29,10.26,10.26,0,0,0-1.24,0,.54.54,0,0,1-.59-.36c-1.17-2.4-2.36-4.8-3.55-7.2,0-.11-.11-.21-.18-.35a.56.56,0,0,0,0,.35q0,4.2,0,8.41c0,.32-.09.38-.39.37-.89,0-1.77,0-2.65,0-.21,0-.27-.06-.27-.27q0-7.07,0-14.14c0-.22.07-.27.27-.27,1.29,0,2.57,0,3.86,0a.45.45,0,0,1,.48.3q1.73,3.71,3.47,7.39l.15.3c.14-.05.14-.18.19-.28,1.17-2.47,2.35-4.93,3.51-7.41a.46.46,0,0,1,.48-.3c1.28,0,2.55,0,3.82,0,.21,0,.28.05.28.27q0,7.06,0,14.14c0,.24-.08.28-.3.28-.9,0-1.81,0-2.71,0-.25,0-.3-.07-.3-.31,0-2.8,0-5.6,0-8.41v-.34Z"/><path class="cls-1" d="M11.18,37.35l4.57-2.63c.38-.22.76-.43,1.13-.66a.4.4,0,0,1,.49,0c1.28.75,2.56,1.47,3.83,2.22a1.12,1.12,0,0,0,1.23,0c1.49-.88,3-1.75,4.51-2.61a1.15,1.15,0,0,0,.62-1.09c0-1.45,0-2.91,0-4.36a.38.38,0,0,1,.2-.4c1.85-1,3.7-2.1,5.55-3.15l.15-.08V35.37a2.4,2.4,0,0,1-1.26,2.2L23,42.93a2.16,2.16,0,0,1-2.32,0q-4.65-2.7-9.28-5.42A.5.5,0,0,1,11.18,37.35Z"/><path class="cls-2" d="M79.57,28.67l4.49-4.88c.3-.32.59-.65.88-1,.07-.07.13-.17.26-.17h4l-.69.76q-2.47,2.74-5,5.48a.32.32,0,0,0,0,.49q2.73,3.8,5.45,7.6l.24.34H85.65a.52.52,0,0,1-.48-.23l-3.88-5.24L81,31.53c-.48.52-.94,1-1.4,1.55-.1.11-.07.23-.07.34,0,1.2,0,2.39,0,3.59,0,.28-.08.33-.35.33-.9,0-1.8,0-2.71,0-.22,0-.27-.07-.27-.28q0-7.07,0-14.14c0-.22.07-.27.28-.27.91,0,1.83,0,2.74,0,.25,0,.31.06.3.3,0,1.77,0,3.54,0,5.31Z"/><path class="cls-2" d="M71.47,32.62l2.08,1.91c.1.09.11.16,0,.27a7.6,7.6,0,0,1-5.21,2.64,7.84,7.84,0,0,1-5.53-1.55A7.13,7.13,0,0,1,60,30a7.38,7.38,0,0,1,6.19-7.54,7.76,7.76,0,0,1,7.41,2.41c.15.16.17.25,0,.42-.56.62-1.12,1.25-1.66,1.89-.16.19-.23.18-.4,0a4.8,4.8,0,0,0-5.32-1.44A4.21,4.21,0,0,0,63.4,30,4.46,4.46,0,0,0,65,33.53a4.69,4.69,0,0,0,5.69-.14A5.85,5.85,0,0,0,71.47,32.62Z"/><path class="cls-2" d="M44.09,31.42c0-1.87,0-3.74,0-5.61,0-.26-.07-.32-.32-.31H40.24c-.22,0-.3-.06-.29-.29q0-1.16,0-2.31c0-.2,0-.26.25-.26q5.56,0,11.13,0c.19,0,.24.06.24.24,0,.78,0,1.56,0,2.35,0,.22-.07.27-.28.27H47.7c-.26,0-.33.06-.33.32,0,3.72,0,7.45,0,11.17,0,.27-.05.35-.33.34q-1.32,0-2.64,0c-.29,0-.33-.09-.33-.34C44.09,35.13,44.09,33.27,44.09,31.42Z"/><path class="cls-2" d="M118.19,30c0-2.33,0-4.67,0-7,0-.28.06-.34.33-.34.89,0,1.77,0,2.65,0,.27,0,.34.06.34.34,0,3.68,0,7.36,0,11,0,.3,0,.4.38.39h5.58c.26,0,.34.06.33.32,0,.78,0,1.56,0,2.35,0,.2-.05.25-.25.25h-9.08c-.26,0-.27-.1-.27-.3Z"/><path class="cls-2" d="M130.17,30q0-3.51,0-7c0-.28.08-.34.34-.34.89,0,1.79,0,2.68,0,.25,0,.3.07.3.31,0,3.7,0,7.4,0,11.1,0,.28,0,.37.34.36h5.62c.25,0,.33.06.32.32q0,1.17,0,2.34c0,.19,0,.26-.24.26h-9.08c-.26,0-.27-.11-.27-.31C130.17,34.68,130.17,32.33,130.17,30Z"/><path class="cls-2" d="M114.59,30c0,2.34,0,4.67,0,7,0,.24,0,.31-.3.31-.91,0-1.83,0-2.74,0-.21,0-.28-.05-.28-.27q0-7.08,0-14.15c0-.21.06-.27.27-.27.92,0,1.83,0,2.75,0,.24,0,.3.05.3.3C114.58,25.31,114.59,27.67,114.59,30Z"/><path class="cls-2" d="M57.24,30c0,2.33,0,4.65,0,7,0,.3-.08.35-.36.35-.88,0-1.76,0-2.64,0-.21,0-.3,0-.3-.28q0-7.07,0-14.13c0-.24.08-.28.29-.28.91,0,1.81,0,2.71,0,.26,0,.3.07.3.31C57.23,25.31,57.24,27.67,57.24,30Z"/></svg>