<svg id="Layer_1" data-name="Layer 1" xmlns="http://www.w3.org/2000/svg" viewBox="0 0 150 60"><defs><style>.cls-1{fill:#00be40;}.cls-2{fill:#fff;}.cls-3{fill:#5a5a5a;}</style></defs><rect class="cls-1" x="22.47" y="7.57" width="44.87" height="44.87"/><path class="cls-2" d="M47.17,27.85A2.48,2.48,0,0,1,48.62,29a2.74,2.74,0,0,1-.06,2.93,2.78,2.78,0,0,1-2.17,1.27,8.87,8.87,0,0,1-1.26.07H40.44c-.26,0-.36-.06-.36-.34V23.22c0-.27.09-.34.35-.34,1.77,0,3.54,0,5.3,0a4.67,4.67,0,0,1,1.46.32,2.55,2.55,0,0,1,0,4.63Zm-2.93,1.29H43.12c-.18,0-.27.05-.27.25,0,.47,0,.95,0,1.42,0,.09.13.24.2.24.78,0,1.56,0,2.33-.06a.83.83,0,0,0,.82-.94.91.91,0,0,0-1-.9C44.92,29.13,44.58,29.14,44.24,29.14Zm-.14-2.22h0c.34,0,.68,0,1,0a.81.81,0,0,0,.85-.83.79.79,0,0,0-.71-.95c-.74-.07-1.49-.06-2.24-.06-.05,0-.16.15-.16.23,0,.45,0,.91,0,1.36,0,.19.08.27.26.26s.66,0,1,0Z"/><path class="cls-2" d="M49.7,30.31l1.3-.2c.39-.06.79-.11,1.17-.18.2,0,.31,0,.4.19a2,2,0,0,0,2.29,1.12,3.58,3.58,0,0,0,.71-.2.7.7,0,0,0,.45-.73.67.67,0,0,0-.46-.68c-.51-.15-1-.25-1.55-.36s-1.3-.18-1.93-.35a2.69,2.69,0,0,1-2.18-2.28,3,3,0,0,1,1.57-3.33,4.65,4.65,0,0,1,2.33-.63,6.49,6.49,0,0,1,2.48.27,3.32,3.32,0,0,1,2.19,2.49c.06.25,0,.32-.24.35-.68.08-1.35.17-2,.27a.36.36,0,0,1-.47-.29,1.28,1.28,0,0,0-1.32-.92,4.35,4.35,0,0,0-1.14.15.71.71,0,0,0-.54.73.7.7,0,0,0,.55.73c.59.15,1.19.26,1.79.36a8.31,8.31,0,0,1,2.29.59,2.75,2.75,0,0,1,1.54,3,3.28,3.28,0,0,1-3.29,2.88c-.63,0-1.27.07-1.9.06a4.29,4.29,0,0,1-2.66-.76A3.4,3.4,0,0,1,49.7,30.31Z"/><path class="cls-2" d="M45,35.76H58.16c.44,0,.44,0,.44.44s0,1,0,1.46c0,.31-.1.41-.39.38H31.72c-.19,0-.28-.08-.28-.28,0-.58,0-1.16,0-1.74,0-.18.07-.27.26-.26H45Z"/><path class="cls-2" d="M31.44,28.06c0-1.58,0-3.17,0-4.76,0-.32.09-.42.42-.42,2.24,0,4.47,0,6.71,0,.31,0,.45.07.43.41,0,.51,0,1,0,1.53,0,.28-.1.37-.38.37h-4c-.29,0-.4.08-.38.38s0,.87,0,1.3.08.41.4.41c1.11,0,2.22,0,3.33,0,.34,0,.47.09.44.44s0,1,0,1.43,0,.48-.49.48c-1.09,0-2.17,0-3.26,0-.31,0-.42.09-.41.41,0,.95,0,1.9,0,2.85,0,.28-.07.39-.36.38q-1,0-2.07,0c-.31,0-.42-.09-.41-.4C31.45,31.24,31.44,29.65,31.44,28.06Z"/><path class="cls-3" d="M79.13,13.19h3.59v.73H80v2.21h2.52v.72H80v3h-.86Z"/><path class="cls-3" d="M80.4,20.27H78.72V12.79h4.41v1.54H80.4v1.4h2.52v1.52H80.4Zm-.86-.82h0V13.6h0Z"/><path class="cls-3" d="M86.15,13.19v6.67h-.86V13.19Z"/><path class="cls-3" d="M86.56,20.27H84.88V12.79h1.68Zm-.86-.82h0V13.6h0Z"/><path class="cls-3" d="M89,19.86V13.19h.94l2.13,3.38a17.48,17.48,0,0,1,1.2,2.16h0c-.08-.89-.1-1.7-.1-2.74V13.19H94v6.67h-.87L91,16.48a21.18,21.18,0,0,1-1.25-2.23h0c.05.84.07,1.64.07,2.75v2.85Z"/><path class="cls-3" d="M94.41,20.27h-1.5l-2.24-3.58c-.17-.26-.32-.52-.46-.75,0,.33,0,.68,0,1.07v3.26H88.59V12.79h1.57l2.25,3.56c.14.2.26.41.38.61,0-.32,0-.64,0-1V12.79h1.63Zm-1-.82h.23V19l-.38.19Zm-2.65-4.27c.19.33.4.69.65,1.08L92.42,18c-.21-.38-.44-.76-.69-1.17Zm-1.3-1.58v.34l.43-.14-.13-.2Z"/><path class="cls-3" d="M97.93,17.76l-.69,2.1h-.89l2.26-6.67h1l2.27,6.67H101l-.71-2.1Zm2.18-.67-.65-1.92c-.15-.43-.25-.83-.35-1.22h0c-.1.4-.21.81-.33,1.21l-.66,1.93Z"/><path class="cls-3" d="M102.49,20.27h-1.78l-.71-2.1H98.22l-.69,2.1H95.78l2.54-7.48h1.62Zm-1.19-.82h0l-1.54-4.52,0,.11.84,2.46h-.06Zm-4.38,0h0l.65-1.95h0Zm1.75-2.77h.88l-.44-1.28Z"/><path class="cls-3" d="M104.25,19.86V13.19h.94l2.13,3.38a17.48,17.48,0,0,1,1.2,2.16h0c-.08-.89-.1-1.7-.1-2.74V13.19h.81v6.67h-.87l-2.12-3.38A23.05,23.05,0,0,1,105,14.25h0c.05.84.07,1.64.07,2.75v2.85Z"/><path class="cls-3" d="M109.66,20.27h-1.5l-2.24-3.58c-.17-.26-.32-.52-.46-.75,0,.33,0,.68,0,1.07v3.26h-1.63V12.79h1.57l2.26,3.56c.13.2.25.41.37.61,0-.32,0-.64,0-1V12.79h1.63Zm-1-.82h.23V19l-.38.19ZM106,15.18c.19.33.4.68.65,1.08L107.67,18c-.21-.38-.44-.76-.69-1.16Zm-1.3-1.58v.34l.43-.14-.13-.2Z"/><path class="cls-3" d="M116.76,19.64A4.24,4.24,0,0,1,115,20a3.12,3.12,0,0,1-3.3-3.38,3.32,3.32,0,0,1,3.48-3.5,3.71,3.71,0,0,1,1.59.3l-.21.7a3.11,3.11,0,0,0-1.35-.27,2.48,2.48,0,0,0-2.6,2.75,2.42,2.42,0,0,0,2.56,2.68,3.43,3.43,0,0,0,1.41-.28Z"/><path class="cls-3" d="M115,20.37a3.51,3.51,0,0,1-3.7-3.79,3.72,3.72,0,0,1,3.88-3.9A4,4,0,0,1,117,13l.29.15-.44,1.49-.43-.21a2.61,2.61,0,0,0-1.17-.24A2.09,2.09,0,0,0,113,16.56a2,2,0,0,0,2.16,2.27,2.91,2.91,0,0,0,1.22-.24l.45-.22.39,1.49-.3.14A4.59,4.59,0,0,1,115,20.37Zm-2.15-5.9a3.13,3.13,0,0,0-.74,2.11,2.75,2.75,0,0,0,1.52,2.69,2.92,2.92,0,0,1-1.42-2.72A3.29,3.29,0,0,1,112.85,14.47Z"/><path class="cls-3" d="M122.63,16.73H120v2.41h2.89v.72h-3.75V13.19h3.6v.73H120V16h2.59Z"/><path class="cls-3" d="M123.34,20.27h-4.57V12.79h4.42v1.54h-2.74v1.29H123v1.52h-2.59v1.59h2.89Zm-3.75-.82h0V13.6h0Z"/><path class="cls-3" d="M79.13,26.61h3.59v.72H80v2.22h2.52v.71H80v3h-.86Z"/><path class="cls-3" d="M80.4,33.68H78.72V26.2h4.41v1.54H80.4v1.4h2.52v1.53H80.4Zm-.86-.81h0V27h0Z"/><path class="cls-3" d="M85.29,26.7a8.3,8.3,0,0,1,1.65-.14,2.77,2.77,0,0,1,1.93.54,1.65,1.65,0,0,1,.52,1.27,1.74,1.74,0,0,1-1.25,1.7v0a1.71,1.71,0,0,1,1,1.35,10,10,0,0,0,.51,1.83h-.89a8.08,8.08,0,0,1-.44-1.59c-.2-.92-.56-1.27-1.34-1.3h-.81v2.89h-.86Zm.86,3H87c.92,0,1.5-.5,1.5-1.27s-.62-1.23-1.53-1.24a3.45,3.45,0,0,0-.85.08Z"/><path class="cls-3" d="M90.31,33.68h-1.8l-.12-.2a7.38,7.38,0,0,1-.49-1.71c-.18-.81-.42-1-1-1h-.39v2.89H84.88V26.36l.33-.06a8.37,8.37,0,0,1,1.73-.15,3.07,3.07,0,0,1,2.2.65,2,2,0,0,1,.66,1.57,2.1,2.1,0,0,1-.89,1.75,2.54,2.54,0,0,1,.6,1.23A12.34,12.34,0,0,0,90,33.08ZM89,32.87h0c-.09-.32-.19-.75-.33-1.33a2.11,2.11,0,0,0-.29-.73,3.11,3.11,0,0,1,.26.78C88.85,32.28,89,32.66,89,32.87Zm-3.31,0h0V27h0Zm1.89-2.79.14.05V30Zm-1-.76H87c.69,0,1.09-.32,1.09-.86,0-.22,0-.82-1.12-.83h-.44Zm1.93-2a1.54,1.54,0,0,1,.45,1.14,2,2,0,0,1,0,.43,1.35,1.35,0,0,0,.1-.53,1.28,1.28,0,0,0-.39-1l-.11-.08Z"/><path class="cls-3" d="M95.41,30.15H92.82v2.4H95.7v.73H92V26.61h3.61v.72H92.82v2.11h2.59Z"/><path class="cls-3" d="M96.11,33.68H91.55V26.2H96v1.54H93.22V29h2.59v1.53H93.22v1.59h2.89Zm-3.75-.81h0V27h0Z"/><path class="cls-3" d="M101.62,30.15H99v2.4h2.88v.73H98.17V26.61h3.59v.72H99v2.11h2.59Z"/><path class="cls-3" d="M102.32,33.68H97.76V26.2h4.42v1.54H99.43V29H102v1.53H99.43v1.59h2.89Zm-3.75-.81h.05V27h-.05Z"/><path class="cls-3" d="M104.38,26.7a12.32,12.32,0,0,1,1.83-.14,3.81,3.81,0,0,1,2.69.83,3.07,3.07,0,0,1,.94,2.39,3.54,3.54,0,0,1-1,2.59,4.15,4.15,0,0,1-3,1,11.56,11.56,0,0,1-1.56-.08Zm.86,5.89a5,5,0,0,0,.87,0,2.56,2.56,0,0,0,2.83-2.83,2.38,2.38,0,0,0-2.7-2.57,4.83,4.83,0,0,0-1,.09Z"/><path class="cls-3" d="M105.94,33.74a14.35,14.35,0,0,1-1.61-.08l-.36,0V26.35l.34-.06a13.36,13.36,0,0,1,1.89-.14,4.2,4.2,0,0,1,3,.94,3.49,3.49,0,0,1,1.07,2.69,3.9,3.9,0,0,1-1.08,2.88A4.49,4.49,0,0,1,105.94,33.74Zm-1.16-.86h0V27.05h0Zm.86-.66h.47a2.17,2.17,0,0,0,2.43-2.42,2.18,2.18,0,0,0-.54-1.58,2.44,2.44,0,0,0-1.76-.58q-.3,0-.6,0Zm2.83-4.66.11.1a2.93,2.93,0,0,1,.77,2.16,3.39,3.39,0,0,1-.63,2.13,3.23,3.23,0,0,0,.72-2.17,2.68,2.68,0,0,0-.81-2.09l-.16-.13Z"/><path class="cls-3" d="M118,29.87c0,2.3-1.39,3.51-3.09,3.51s-3-1.36-3-3.38,1.32-3.5,3.1-3.5S118,27.89,118,29.87Zm-5.17.11c0,1.42.77,2.7,2.13,2.7s2.13-1.26,2.13-2.77c0-1.32-.69-2.71-2.12-2.71s-2.14,1.32-2.14,2.78Z"/><path class="cls-3" d="M114.91,33.8c-2,0-3.41-1.56-3.41-3.79s1.44-3.91,3.51-3.91,3.4,1.55,3.4,3.78C118.41,32.58,116.65,33.8,114.91,33.8Zm-1.87-6a3.41,3.41,0,0,0-.72,2.23,3,3,0,0,0,1.15,2.54,3.27,3.27,0,0,1-1-2.56,3.8,3.8,0,0,1,.62-2.21Zm1.93-.17c-1.28,0-1.73,1.28-1.73,2.38s.54,2.29,1.72,2.29,1.73-1.19,1.73-2.36-.54-2.31-1.72-2.31Zm1.45-.3a3.41,3.41,0,0,1,1.08,2.61,3.6,3.6,0,0,1-.76,2.35,3.29,3.29,0,0,0,.86-2.39,2.93,2.93,0,0,0-1.18-2.57Z"/><path class="cls-3" d="M126.08,30.35c0-.93-.11-2.05-.1-2.88h0c-.22.78-.5,1.62-.84,2.54l-1.18,3.23h-.65l-1.08-3.17c-.31-.94-.58-1.8-.77-2.59h0c0,.83-.07,1.94-.13,2.94l-.18,2.86h-.82l.47-6.67h1.09L123,29.84c.28.82.51,1.55.67,2.24h0c.17-.67.41-1.4.71-2.24l1.18-3.23h1.1l.42,6.67h-.84Z"/><path class="cls-3" d="M127.53,33.68h-1.66l-.19-3.31c0-.2,0-.42,0-.64,0,.14-.09.27-.14.41l-1.28,3.5H123l-1.17-3.45c0-.1-.07-.2-.1-.29l0,.54-.2,3.24h-1.64l.52-7.48h1.77l1.23,3.49c.12.35.22.67.31,1q.13-.43.33-1l1.28-3.49h1.77Zm-.89-.81h0l-.21-3.38c0,.29,0,.57,0,.83Zm-5.91,0h0v0Zm2.85,0h.07l.13-.34h-.32Zm2.27-5.77h.45v0h-.43Zm-4.72,0h.45v0h-.43Z"/><path class="cls-3" d="M79,45.64a3.12,3.12,0,0,0,1.54.44c.88,0,1.39-.47,1.39-1.14s-.35-1-1.25-1.33c-1.09-.38-1.76-1-1.76-1.89a1.92,1.92,0,0,1,2.15-1.81,3,3,0,0,1,1.48.33l-.24.7a2.53,2.53,0,0,0-1.26-.31c-.91,0-1.26.54-1.26,1,0,.63.41.93,1.33,1.29,1.12.43,1.7,1,1.7,2s-.77,1.92-2.34,1.92a3.43,3.43,0,0,1-1.7-.43Z"/><path class="cls-3" d="M80.49,47.2a3.81,3.81,0,0,1-1.92-.5l-.26-.17L78.77,45l.45.27a2.7,2.7,0,0,0,1.33.38c.3,0,1-.07,1-.73,0-.31-.07-.58-1-.94-1.36-.48-2-1.23-2-2.27a2.33,2.33,0,0,1,2.57-2.22,3.4,3.4,0,0,1,1.67.38l.29.17-.5,1.48-.42-.23A2.25,2.25,0,0,0,81.06,41c-.63,0-.85.31-.85.6s.07.52,1.06.9a2.52,2.52,0,0,1,2,2.34C83.23,46,82.39,47.2,80.49,47.2Zm.61-3.86a1.71,1.71,0,0,1,1.25,1.6,1.42,1.42,0,0,1-.23.82,1.37,1.37,0,0,0,.3-.89c0-.61-.23-1.08-1.32-1.53ZM79.54,41a1.19,1.19,0,0,0-.2.7c0,.45.16,1,1.43,1.49-.73-.3-1.38-.7-1.38-1.58A1.31,1.31,0,0,1,79.54,41Z"/><path class="cls-3" d="M86.21,40V44c0,1.49.66,2.13,1.55,2.13s1.62-.66,1.62-2.13V40h.87v3.89c0,2.05-1.07,2.89-2.52,2.89S85.34,46,85.34,44V40Z"/><path class="cls-3" d="M87.73,47.21c-1.78,0-2.8-1.19-2.8-3.26V39.62h1.69V44c0,.78.2,1.71,1.14,1.71.3,0,1.22,0,1.22-1.71V39.62h1.68v4.29C90.66,46,89.59,47.21,87.73,47.21Zm-2-6.77V44A2.51,2.51,0,0,0,86.5,46,2.69,2.69,0,0,1,85.8,44V40.44Zm4,0V44a3.18,3.18,0,0,1-.37,1.64,3,3,0,0,0,.43-1.7V40.43Z"/><path class="cls-3" d="M97.75,46.47a4.24,4.24,0,0,1-1.76.32,3.11,3.11,0,0,1-3.29-3.37,3.32,3.32,0,0,1,3.48-3.51,3.69,3.69,0,0,1,1.58.3l-.21.7a3.09,3.09,0,0,0-1.34-.27,2.47,2.47,0,0,0-2.6,2.75,2.42,2.42,0,0,0,2.56,2.68,3.38,3.38,0,0,0,1.4-.28Z"/><path class="cls-3" d="M96,47.2a3.51,3.51,0,0,1-3.7-3.78,3.73,3.73,0,0,1,3.89-3.91,4,4,0,0,1,1.77.34l.3.15-.44,1.49-.44-.21A2.92,2.92,0,0,0,96.2,41,2.09,2.09,0,0,0,94,43.39a2,2,0,0,0,2.15,2.27,3,3,0,0,0,1.23-.24l.44-.21.39,1.48-.29.15A4.81,4.81,0,0,1,96,47.2Zm-2.15-5.9a3.14,3.14,0,0,0-.74,2.12,2.76,2.76,0,0,0,1.51,2.68,2.93,2.93,0,0,1-1.41-2.72A3.35,3.35,0,0,1,93.84,41.3Z"/><path class="cls-3" d="M104.62,46.47a4.21,4.21,0,0,1-1.76.32,3.11,3.11,0,0,1-3.29-3.37,3.32,3.32,0,0,1,3.48-3.51,3.69,3.69,0,0,1,1.58.3l-.21.7a3.09,3.09,0,0,0-1.34-.27,2.48,2.48,0,0,0-2.6,2.75A2.42,2.42,0,0,0,103,46.07a3.38,3.38,0,0,0,1.4-.28Z"/><path class="cls-3" d="M102.86,47.2a3.51,3.51,0,0,1-3.7-3.78,3.73,3.73,0,0,1,3.89-3.91,4,4,0,0,1,1.77.34l.3.15-.44,1.49-.43-.21a2.78,2.78,0,0,0-1.17-.23,2.08,2.08,0,0,0-2.19,2.34A2,2,0,0,0,103,45.66a3,3,0,0,0,1.23-.24l.45-.21.38,1.48-.3.15A4.69,4.69,0,0,1,102.86,47.2Zm-2.15-5.9a3.13,3.13,0,0,0-.73,2.12,2.74,2.74,0,0,0,1.51,2.68,2.93,2.93,0,0,1-1.42-2.72,3.35,3.35,0,0,1,.64-2.08Z"/><path class="cls-3" d="M110.5,43.56h-2.59V46h2.88v.72h-3.74V40h3.6v.73h-2.74v2.1h2.59Z"/><path class="cls-3" d="M111.2,47.1h-4.56V39.62h4.42v1.54h-2.74v1.29h2.59V44h-2.59v1.59h2.89Zm-3.75-.82h0V40.43h0Z"/><path class="cls-3" d="M113.14,45.64a3.09,3.09,0,0,0,1.54.44c.88,0,1.39-.47,1.39-1.14s-.35-1-1.25-1.33c-1.09-.38-1.76-1-1.76-1.89a1.92,1.92,0,0,1,2.15-1.81,3,3,0,0,1,1.48.33l-.24.7a2.69,2.69,0,0,0-1.27-.32c-.91,0-1.26.55-1.26,1,0,.62.41.93,1.33,1.29,1.13.43,1.7,1,1.7,2s-.76,1.92-2.33,1.92a3.38,3.38,0,0,1-1.7-.42Z"/><path class="cls-3" d="M114.62,47.2a3.88,3.88,0,0,1-1.93-.5l-.25-.17L112.9,45l.45.27a2.51,2.51,0,0,0,1.33.38c.3,0,1-.07,1-.73,0-.31-.07-.58-1-.94-1.36-.48-2-1.23-2-2.27a2.33,2.33,0,0,1,2.57-2.22,3.4,3.4,0,0,1,1.67.38l.3.17-.51,1.47-.43-.23a2.24,2.24,0,0,0-1.07-.27c-.63,0-.85.31-.85.6s.08.52,1.07.9a2.52,2.52,0,0,1,2,2.34C117.36,46,116.51,47.2,114.62,47.2Zm.6-3.86a1.7,1.7,0,0,1,1.26,1.6,1.42,1.42,0,0,1-.23.82,1.43,1.43,0,0,0,.3-.89c0-.61-.23-1.08-1.32-1.53ZM113.66,41a1.25,1.25,0,0,0-.19.7c0,.45.16,1,1.42,1.49-.72-.3-1.37-.7-1.37-1.58a1.43,1.43,0,0,1,.14-.61Z"/><path class="cls-3" d="M119.36,45.64a3.09,3.09,0,0,0,1.54.44c.88,0,1.39-.47,1.39-1.14s-.35-1-1.25-1.33c-1.09-.38-1.76-1-1.76-1.89a1.92,1.92,0,0,1,2.15-1.81,3,3,0,0,1,1.48.33l-.24.7a2.69,2.69,0,0,0-1.27-.32c-.91,0-1.26.55-1.26,1,0,.62.41.93,1.33,1.29,1.13.43,1.7,1,1.7,2s-.76,1.92-2.33,1.92a3.38,3.38,0,0,1-1.7-.42Z"/><path class="cls-3" d="M120.84,47.2a3.88,3.88,0,0,1-1.93-.5l-.25-.17.46-1.51.45.27a2.7,2.7,0,0,0,1.33.38c.29,0,1-.07,1-.73,0-.32-.07-.59-1-.94-1.36-.49-2-1.23-2-2.27a2.33,2.33,0,0,1,2.56-2.22,3.42,3.42,0,0,1,1.68.38l.29.17-.5,1.48-.43-.24A2.32,2.32,0,0,0,121.4,41c-.62,0-.85.3-.85.59s.08.52,1.07.91a2.5,2.5,0,0,1,2,2.33C123.58,46,122.74,47.2,120.84,47.2Zm.6-3.86a1.7,1.7,0,0,1,1.26,1.6,1.42,1.42,0,0,1-.23.82,1.37,1.37,0,0,0,.3-.89c0-.61-.23-1.08-1.33-1.53ZM119.88,41a1.25,1.25,0,0,0-.19.7c0,.45.16,1,1.43,1.49-.73-.3-1.38-.7-1.38-1.58a1.43,1.43,0,0,1,.14-.61Z"/></svg>