<?xml version="1.0" encoding="utf-8"?>
<!-- Generator: Adobe Illustrator 25.4.1, SVG Export Plug-In . SVG Version: 6.00 Build 0)  -->
<svg version="1.1" id="Layer_1" xmlns="http://www.w3.org/2000/svg" xmlns:xlink="http://www.w3.org/1999/xlink" x="0px" y="0px"
	 viewBox="0 0 300 120" style="enable-background:new 0 0 300 120;" xml:space="preserve">
<style type="text/css">
	.st0{fill:#F5C833;}
	.st1{fill-rule:evenodd;clip-rule:evenodd;fill:#F5C833;}
	.st2{fill-rule:evenodd;clip-rule:evenodd;fill:#00AEEF;stroke:#00AEEF;stroke-width:0.216;stroke-miterlimit:22.9256;}
	.st3{fill-rule:evenodd;clip-rule:evenodd;fill:#00A651;stroke:#00A651;stroke-width:0.216;stroke-miterlimit:22.9256;}
	.st4{fill-rule:evenodd;clip-rule:evenodd;fill:#F5C833;stroke:#F5C833;stroke-width:0.216;stroke-miterlimit:22.9256;}
	.st5{fill:#04A64D;}
	.st6{fill:#01A64F;}
	.st7{fill:#2AACE3;}
	.st8{fill-rule:evenodd;clip-rule:evenodd;fill:#07A64C;}
	.st9{fill-rule:evenodd;clip-rule:evenodd;fill:#CD3D32;}
	.st10{fill:#CD3D32;}
</style>
<g>
	<g>
		<path class="st0" d="M74.14,72.1l8.24-23.13c1.84-2.38,4.81-2.28,5.71,0.05l-6.95,19.56l11.62,0.25c2.04,1.14,0.4,3.77-0.99,4.67
			l0,0l-16.18,0.15C74.53,73.64,73.84,72.79,74.14,72.1z"/>
		<path class="st0" d="M126.26,73.74c-2.58,0-4.47-0.6-5.61-1.74c-1.14-1.14-1.54-2.78-1.09-4.96c0.1-0.45,0.25-0.94,0.4-1.49
			c0.15-0.55,0.35-1.04,0.6-1.59c1.29-3.08,3.13-5.51,5.56-7.25c2.38-1.74,5.06-2.63,8.04-2.63c2.48,0,4.27,0.6,5.31,1.69
			c1.04,1.14,1.34,2.83,0.89,5.01c-0.1,0.55-0.25,1.14-0.45,1.74c-0.69,2.13-1.09,2.68-3.08,2.78l-11.52-0.25l0,0l-0.1,0.25
			c-0.1,0.35-0.2,0.65-0.25,0.99c-0.2,1.14-0.05,1.99,0.4,2.53c0.5,0.55,1.34,0.84,2.58,0.84c0.89,0,1.74-0.2,2.53-0.55
			c0.79-0.35,1.39-0.84,1.84-1.39l0,0c2.08-1.34,6.06-1.04,5.11,0.5v0.05c-1.29,1.84-2.78,2.68-4.81,3.72
			C130.58,73.19,128.49,73.74,126.26,73.74L126.26,73.74z M134.89,62.02L134.89,62.02l0.15-0.65c0.2-1.09,0.1-1.89-0.35-2.38
			c-0.45-0.5-1.19-0.79-2.33-0.79c-1.39,0-2.68,0.5-3.77,1.54c-0.65,0.6-1.24,1.34-1.84,2.28l0,0
			C126.75,62.02,134.89,62.02,134.89,62.02z"/>
		<g>
			<path class="st1" d="M105.36,47.03c-1.59,0-3.03,1.34-3.23,2.98c-0.2,1.64,0.89,2.98,2.43,2.98c1.59,0,3.03-1.34,3.23-2.98
				C108.04,48.37,106.95,47.03,105.36,47.03z"/>
			<path class="st1" d="M100.69,55.62l-4.81,15.39c-0.4,3.62,4.52,3.43,5.36,0.69c1.39-4.96,3.03-9.98,4.47-14.89
				C106.25,53.88,101.49,53.63,100.69,55.62z"/>
		</g>
		<path class="st1" d="M112.46,54.68l-2.58,0.1c-0.99,0.1-1.94,2.53-1.04,3.18h2.04l-3.67,12.61c-0.5,1.64-0.05,2.68,1.44,3.08
			l6.7,0.05c1.99-0.15,3.43-3.87,1.49-4.12l-3.67-0.25l3.13-11.07h4.02c0.84-0.4,1.79-3.03,0.55-3.57l-3.38-0.05l1.94-5.91
			c0.25-1.34-3.77-2.38-5.01-0.6L112.46,54.68z"/>
	</g>
	<g>
		<path class="st2" d="M53.79,39.88l6.4,6.8l10.42-11.02c1.94-2.08,2.78-4.42,0.2-6.75c-2.78-2.48-4.32-1.59-6.5,0.6L53.79,39.88z"
			/>
		<path class="st3" d="M17.4,48.02l19.26-19.41c2.53-2.18,3.72-2.43,6.25-0.2l26.76,27.5c1.99,2.04,3.62,4.52,1.19,7.2
			c-2.43,2.73-5.16,1.34-7.2-0.65l-9.78-9.83l-9.93,10.23c-1.94,1.99-4.67,2.88-6.95,0.4c-2.33-2.58-1.39-4.86,0.6-6.95l9.63-9.98
			l-7.94-7.64L23.75,54.33c-2.18,2.23-5.41,4.62-8.04,0.99C13.38,52.14,15.27,50.21,17.4,48.02z"/>
		<path class="st4" d="M9.31,63.56c9.28,9.38,18.56,18.81,27.85,28.19c1.84,1.64,3.62,1.64,5.46,0c6.95-7,13.95-14,20.9-21
			c1.84-1.89,1.89-4.32-0.25-6.3c-2.53-2.38-4.27-1.44-6.3,0.55L40.04,81.88C32.04,73.89,24,65.89,16.01,57.95
			c-2.13-2.08-4.57-3.67-7.2-0.74C6.78,59.49,7.52,61.73,9.31,63.56z"/>
	</g>
	<path class="st5" d="M165.07,51.2h-10.42l-2.18,6.7h8.74c0.79,0,1.34,0.2,1.64,0.55c0.3,0.35,0.3,0.84,0.1,1.44
		c-0.2,0.6-0.55,1.09-1.09,1.44c-0.55,0.35-1.19,0.55-1.99,0.55h-8.74l-2.83,8.64c-0.35,1.09-0.89,1.89-1.54,2.43
		c-0.65,0.55-1.39,0.79-2.13,0.79c-0.79,0-1.34-0.25-1.64-0.79c-0.3-0.55-0.3-1.34,0.05-2.43l6.6-20.15
		c0.25-0.74,0.55-1.39,0.94-1.89c0.4-0.5,0.84-0.84,1.39-1.04c0.55-0.2,1.19-0.35,1.94-0.35h12.46c0.84,0,1.39,0.2,1.69,0.55
		c0.3,0.4,0.35,0.84,0.15,1.49c-0.2,0.6-0.55,1.09-1.09,1.49C166.61,51,165.92,51.2,165.07,51.2z"/>
	<path class="st6" d="M185.67,58.05L185.67,58.05c2.04-2.18,4.12-2.98,4.96-3.23s1.94-0.4,2.78-0.35c1.39,0.05,5.01,1.04,3.77,6.35
		c-0.2,0.79-0.3,1.29-0.79,2.88l-2.33,7.25c-0.35,1.09-0.89,1.69-1.39,2.13c-0.55,0.45-0.99,0.65-1.79,0.65
		c-1.74,0-2.58-0.55-1.84-2.83l1.99-6.01c0.5-1.59,1.29-3.28,0.99-4.52c-0.25-1.04-2.08-2.33-4.62-0.6
		c-0.89,0.6-1.94,1.69-2.63,2.78c-0.5,0.84-1.14,2.23-1.79,4.27l-1.29,4.02c-0.35,1.04-0.65,1.44-1.29,1.99
		c-0.65,0.55-1.39,0.84-2.23,0.84c-1.74,0-2.43-0.65-1.99-2.28l3.97-12.86c0.6-1.64,1.24-2.93,1.84-3.47
		c0.65-0.55,1.34-0.79,2.18-0.79c0.84,0,1.39,0.3,1.69,0.84C186.22,55.67,186.02,56.96,185.67,58.05z"/>
	<g>
		<path class="st6" d="M210.2,70.11l4.02-12.21c0.4-1.19,0.89-2.08,1.54-2.63c0.65-0.55,1.34-0.84,2.08-0.79
			c0.74,0.05,1.29,0.35,1.54,0.99c0.25,0.65,0.2,1.54-0.2,2.73l-4.02,12.21c-0.4,1.19-0.84,1.94-1.54,2.53
			c-0.65,0.6-1.39,0.84-2.13,0.79c-0.74-0.05-1.24-0.4-1.49-1.04C209.8,72.05,209.8,71.31,210.2,70.11z"/>
		<path class="st6" d="M210.69,69.82l0.65-3.08c-0.89,1.49-2.48,3.18-4.81,3.28c-0.84,0.05-1.54-0.25-1.99-0.74
			c-0.5-0.5-0.74-1.19-0.84-2.13c-0.05-0.94,0.1-1.99,0.45-3.23c0.35-1.24,0.84-2.33,1.49-3.28c0.6-0.94,1.29-1.64,2.08-2.13
			c0.79-0.5,1.94-0.84,2.78-0.84c2.28,0,3.23,1.34,3.03,2.53l1.99-4.47c-0.35-0.3-1.79-1.49-4.42-1.44c-1.24,0-2.48,0.25-3.67,0.69
			c-1.19,0.45-2.28,1.09-3.23,1.94c-0.99,0.84-1.84,1.89-2.58,3.08c-0.74,1.19-1.34,2.48-1.74,3.92c-0.4,1.44-0.6,2.73-0.55,3.92
			c0.05,1.19,0.3,2.18,0.79,3.08c0.5,0.89,1.19,1.54,2.08,1.99s1.99,0.74,3.28,0.69c2.43-0.05,4.47-1.84,4.81-2.04L210.69,69.82z"/>
	</g>
	<path class="st6" d="M257.65,69.72c-0.55,0.69-1.24,1.34-2.13,1.94c-0.84,0.6-1.89,1.09-3.03,1.49s-2.38,0.55-3.67,0.55
		c-2.78,0-4.67-0.84-5.66-2.58c-1.04-1.74-1.09-4.02-0.2-6.9c0.6-1.94,1.49-3.67,2.63-5.21c1.19-1.49,2.53-2.68,4.12-3.47
		c1.59-0.84,3.33-1.24,5.16-1.24c1.14,0,2.23,0.05,3.08,0.45c1.14,0.55,1.84,1.24,2.28,2.48c0.3,0.89,0.2,2.23-0.55,3.13
		c-0.6,0.74-1.99,1.29-2.63,0.6c-0.69-0.74-0.45-1.19-1.04-1.94c-0.4-0.5-1.04-0.84-1.84-0.84c-1.14-0.05-2.63,0.25-3.87,1.54
		c-1.09,1.09-1.99,2.38-2.63,3.97c-0.35,0.84-0.69,2.18-0.74,2.93c0,0.74-0.05,2.73,2.28,2.98c2.08,0.25,3.92-0.94,4.57-1.94
		c0.45-0.55,2.04-0.79,2.93-0.79c1.14,0.05,1.44,0.35,1.69,0.79C258.64,68.13,258.2,69.07,257.65,69.72z"/>
	<g>
		<path class="st7" d="M77.66,87.54h-1.69v-6.6h-2.18V79.5h6.06v1.44h-2.18L77.66,87.54L77.66,87.54z"/>
		<path class="st7" d="M86.6,87.54h-1.69v-3.57c0-0.89-0.35-1.34-0.99-1.34c-0.45,0-0.79,0.15-0.99,0.5c-0.2,0.3-0.3,0.84-0.3,1.54
			v2.88h-1.69V79h1.69v1.74c0,0.15,0,0.45-0.05,0.94l-0.05,0.5h0.1c0.4-0.6,0.94-0.89,1.79-0.89c0.74,0,1.29,0.2,1.64,0.6
			c0.4,0.4,0.55,0.94,0.55,1.69V87.54z"/>
		<path class="st7" d="M91.11,87.64c-0.99,0-1.79-0.25-2.33-0.79c-0.55-0.55-0.84-1.34-0.84-2.33c0-1.04,0.25-1.84,0.79-2.38
			c0.5-0.55,1.24-0.84,2.13-0.84c0.84,0,1.54,0.25,2.04,0.74c0.5,0.5,0.74,1.19,0.74,2.04v0.79h-3.97c0,0.5,0.15,0.84,0.45,1.09
			c0.25,0.25,0.65,0.4,1.09,0.4c0.35,0,0.74-0.05,1.04-0.1c0.35-0.1,0.69-0.2,1.04-0.35v1.29c-0.3,0.15-0.6,0.25-0.94,0.35
			C92.01,87.64,91.61,87.64,91.11,87.64z M90.87,82.47c-0.35,0-0.65,0.1-0.84,0.35c-0.2,0.25-0.3,0.55-0.35,0.94h2.33
			c0-0.4-0.1-0.74-0.35-0.94C91.51,82.57,91.21,82.47,90.87,82.47z"/>
		<path class="st7" d="M105.86,87.54h-1.94l-1.09-4.22c-0.05-0.15-0.1-0.45-0.2-0.94c-0.1-0.45-0.15-0.79-0.15-0.94
			c0,0.2-0.1,0.5-0.15,0.94c-0.1,0.45-0.15,0.74-0.2,0.94l-1.09,4.22h-1.94l-2.04-8.04h1.69l1.04,4.37c0.2,0.79,0.3,1.49,0.4,2.08
			c0-0.2,0.05-0.55,0.15-0.99c0.1-0.45,0.15-0.79,0.2-1.04l1.19-4.52h1.59l1.19,4.52c0.05,0.2,0.1,0.5,0.2,0.94
			c0.1,0.4,0.15,0.79,0.2,1.04c0.05-0.3,0.1-0.65,0.2-1.09c0.1-0.45,0.15-0.79,0.2-1.04l1.04-4.37h1.69L105.86,87.54z"/>
		<path class="st7" d="M114.34,84.46c0,0.99-0.25,1.79-0.79,2.33c-0.55,0.55-1.24,0.84-2.18,0.84c-0.6,0-1.09-0.15-1.54-0.4
			c-0.45-0.25-0.79-0.65-1.04-1.09c-0.25-0.5-0.35-1.04-0.35-1.69c0-0.99,0.25-1.79,0.79-2.33c0.55-0.55,1.24-0.84,2.23-0.84
			c0.6,0,1.09,0.15,1.54,0.4s0.79,0.65,1.04,1.09C114.24,83.22,114.34,83.81,114.34,84.46z M110.12,84.46c0,0.6,0.1,1.09,0.3,1.39
			c0.2,0.3,0.55,0.45,0.99,0.45s0.74-0.15,0.94-0.45c0.2-0.3,0.3-0.79,0.3-1.39c0-0.6-0.1-1.04-0.3-1.39
			c-0.2-0.3-0.55-0.45-0.99-0.45c-0.45,0-0.74,0.15-0.94,0.45C110.22,83.37,110.12,83.81,110.12,84.46z"/>
		<path class="st7" d="M119.16,81.28c0.25,0,0.4,0,0.55,0.05l-0.15,1.59c-0.15-0.05-0.3-0.05-0.5-0.05c-0.55,0-0.94,0.15-1.24,0.4
			c-0.3,0.3-0.45,0.65-0.45,1.14v3.13h-1.69v-6.16h1.29l0.25,1.04h0.1c0.2-0.35,0.45-0.65,0.79-0.84
			C118.46,81.38,118.81,81.28,119.16,81.28z"/>
		<path class="st7" d="M122.53,87.54h-1.69V79h1.69V87.54z"/>
		<path class="st7" d="M126.26,87.64c-0.74,0-1.29-0.3-1.69-0.84s-0.6-1.34-0.6-2.33c0-0.99,0.2-1.79,0.65-2.33
			c0.4-0.55,0.99-0.84,1.74-0.84c0.79,0,1.34,0.3,1.79,0.89h0.05c-0.1-0.45-0.15-0.84-0.15-1.24v-1.99h1.69v8.54h-1.29l-0.35-0.79
			h-0.05C127.6,87.34,127,87.64,126.26,87.64z M126.85,86.3c0.45,0,0.74-0.15,0.94-0.4c0.2-0.25,0.3-0.69,0.35-1.29v-0.2
			c0-0.65-0.1-1.14-0.3-1.44c-0.2-0.3-0.55-0.45-0.99-0.45c-0.4,0-0.65,0.15-0.89,0.5c-0.2,0.3-0.3,0.79-0.3,1.39
			c0,0.6,0.1,1.04,0.3,1.34C126.16,86.15,126.46,86.3,126.85,86.3z"/>
		<path class="st7" d="M139.91,84.46c0,0.99-0.25,1.79-0.79,2.33c-0.55,0.55-1.24,0.84-2.18,0.84c-0.6,0-1.09-0.15-1.54-0.4
			s-0.79-0.65-1.04-1.09c-0.25-0.5-0.35-1.04-0.35-1.69c0-0.99,0.25-1.79,0.79-2.33c0.55-0.55,1.24-0.84,2.23-0.84
			c0.6,0,1.09,0.15,1.54,0.4s0.79,0.65,1.04,1.09C139.81,83.22,139.91,83.81,139.91,84.46z M135.69,84.46c0,0.6,0.1,1.09,0.3,1.39
			c0.2,0.3,0.55,0.45,0.99,0.45s0.74-0.15,0.94-0.45c0.2-0.3,0.3-0.79,0.3-1.39c0-0.6-0.1-1.04-0.3-1.39
			c-0.2-0.3-0.55-0.45-0.99-0.45c-0.45,0-0.74,0.15-0.94,0.45C135.79,83.37,135.69,83.81,135.69,84.46z"/>
		<path class="st7" d="M144.72,82.62h-1.44v4.86h-1.69v-4.86h-0.94v-0.79l0.94-0.45v-0.45c0-0.69,0.15-1.19,0.5-1.54
			c0.35-0.3,0.89-0.5,1.64-0.5c0.6,0,1.09,0.1,1.54,0.25l-0.45,1.24c-0.35-0.1-0.65-0.15-0.94-0.15c-0.25,0-0.4,0.05-0.5,0.2
			c-0.1,0.15-0.15,0.3-0.15,0.55v0.4h1.44v1.24H144.72z"/>
		<path class="st7" d="M150.43,87.54h-1.69V79.5h4.62v1.39h-2.93v2.08h2.73v1.39h-2.73V87.54z"/>
		<path class="st7" d="M154.7,79.79c0-0.55,0.3-0.84,0.89-0.84s0.89,0.3,0.89,0.84c0,0.25-0.1,0.45-0.25,0.6s-0.4,0.2-0.69,0.2
			C155,80.64,154.7,80.34,154.7,79.79z M156.44,87.54h-1.69v-6.16h1.69V87.54z"/>
		<path class="st7" d="M163.88,87.54h-1.69v-3.57c0-0.45-0.1-0.79-0.25-0.99c-0.15-0.2-0.4-0.35-0.74-0.35
			c-0.45,0-0.79,0.15-0.99,0.45s-0.3,0.84-0.3,1.54v2.88h-1.69v-6.16h1.29l0.25,0.79h0.1c0.2-0.3,0.45-0.5,0.79-0.69
			c0.35-0.15,0.69-0.25,1.14-0.25c0.69,0,1.24,0.2,1.64,0.6c0.35,0.4,0.55,0.94,0.55,1.69v4.07H163.88z"/>
		<path class="st7" d="M169.49,87.54l-0.35-0.84h-0.05c-0.3,0.35-0.6,0.6-0.89,0.74c-0.3,0.15-0.69,0.2-1.19,0.2
			c-0.6,0-1.04-0.15-1.39-0.5c-0.35-0.35-0.5-0.79-0.5-1.44c0-0.65,0.25-1.14,0.69-1.44c0.45-0.3,1.14-0.5,2.08-0.5l1.04-0.05v-0.25
			c0-0.65-0.3-0.94-0.94-0.94c-0.5,0-1.09,0.15-1.74,0.45l-0.55-1.14c0.69-0.35,1.49-0.55,2.33-0.55s1.44,0.2,1.89,0.55
			s0.65,0.89,0.65,1.64v4.07H169.49z M169,84.71h-0.65c-0.5,0-0.84,0.1-1.09,0.25c-0.25,0.15-0.35,0.4-0.35,0.74
			c0,0.5,0.25,0.69,0.79,0.69c0.4,0,0.69-0.1,0.94-0.35c0.25-0.25,0.35-0.5,0.35-0.89V84.71z"/>
		<path class="st7" d="M178.08,87.54h-1.69v-3.57c0-0.45-0.1-0.79-0.25-0.99c-0.15-0.2-0.4-0.35-0.74-0.35
			c-0.45,0-0.79,0.15-0.99,0.45s-0.3,0.84-0.3,1.54v2.88h-1.69v-6.16h1.29l0.25,0.79h0.1c0.2-0.3,0.45-0.5,0.79-0.69
			c0.35-0.15,0.69-0.25,1.14-0.25c0.69,0,1.24,0.2,1.64,0.6c0.35,0.4,0.55,0.94,0.55,1.69v4.07H178.08z"/>
		<path class="st7" d="M182.3,87.64c-1.94,0-2.88-1.04-2.88-3.13c0-1.04,0.25-1.84,0.79-2.38c0.55-0.55,1.29-0.84,2.23-0.84
			c0.69,0,1.34,0.15,1.94,0.4l-0.5,1.29c-0.25-0.1-0.5-0.2-0.74-0.25c-0.25-0.05-0.45-0.1-0.69-0.1c-0.89,0-1.29,0.6-1.29,1.84
			c0,1.19,0.45,1.79,1.29,1.79c0.3,0,0.65-0.05,0.89-0.15c0.25-0.1,0.55-0.2,0.84-0.4v1.44c-0.25,0.15-0.55,0.3-0.84,0.35
			S182.75,87.64,182.3,87.64z"/>
		<path class="st7" d="M185.53,79.79c0-0.55,0.3-0.84,0.89-0.84c0.6,0,0.89,0.3,0.89,0.84c0,0.25-0.1,0.45-0.25,0.6
			s-0.4,0.2-0.69,0.2C185.82,80.64,185.53,80.34,185.53,79.79z M187.26,87.54h-1.69v-6.16h1.69V87.54z"/>
		<path class="st7" d="M192.92,87.54l-0.35-0.84h-0.05c-0.3,0.35-0.6,0.6-0.89,0.74c-0.3,0.15-0.69,0.2-1.19,0.2
			c-0.6,0-1.04-0.15-1.39-0.5c-0.35-0.35-0.5-0.79-0.5-1.44c0-0.65,0.25-1.14,0.69-1.44c0.45-0.3,1.14-0.5,2.08-0.5l1.04-0.05v-0.25
			c0-0.65-0.3-0.94-0.94-0.94c-0.5,0-1.09,0.15-1.74,0.45l-0.55-1.14c0.69-0.35,1.49-0.55,2.33-0.55s1.44,0.2,1.89,0.55
			s0.65,0.89,0.65,1.64v4.07H192.92z M192.43,84.71h-0.65c-0.5,0-0.84,0.1-1.09,0.25c-0.25,0.15-0.35,0.4-0.35,0.74
			c0,0.5,0.25,0.69,0.79,0.69c0.4,0,0.69-0.1,0.94-0.35c0.25-0.25,0.35-0.5,0.35-0.89V84.71z"/>
		<path class="st7" d="M197.49,87.54h-1.69V79h1.69V87.54z"/>
		<path class="st7" d="M203.99,87.54h-1.69V79.5h4.62v1.39h-2.93v2.08h2.73v1.39h-2.73V87.54z"/>
		<path class="st7" d="M211.78,81.28c0.25,0,0.4,0,0.55,0.05l-0.15,1.59c-0.15-0.05-0.3-0.05-0.5-0.05c-0.55,0-0.94,0.15-1.24,0.4
			c-0.3,0.3-0.45,0.65-0.45,1.14v3.13h-1.69v-6.16h1.29l0.25,1.04h0.1c0.2-0.35,0.45-0.65,0.79-0.84
			C211.04,81.38,211.44,81.28,211.78,81.28z"/>
		<path class="st7" d="M216.25,87.64c-0.99,0-1.74-0.25-2.33-0.79c-0.55-0.55-0.84-1.34-0.84-2.33c0-1.04,0.25-1.84,0.79-2.38
			c0.5-0.55,1.24-0.84,2.13-0.84s1.54,0.25,2.04,0.74c0.5,0.5,0.74,1.19,0.74,2.04v0.79h-3.97c0,0.5,0.15,0.84,0.45,1.09
			c0.25,0.25,0.65,0.4,1.09,0.4c0.35,0,0.74-0.05,1.04-0.1c0.3-0.05,0.69-0.2,1.04-0.35v1.29c-0.3,0.15-0.6,0.25-0.94,0.35
			C217.15,87.59,216.75,87.64,216.25,87.64z M216,82.47c-0.35,0-0.65,0.1-0.84,0.35c-0.2,0.25-0.3,0.55-0.35,0.94h2.33
			c0-0.4-0.1-0.74-0.35-0.94C216.65,82.57,216.4,82.47,216,82.47z"/>
		<path class="st7" d="M222.9,87.64c-0.99,0-1.74-0.25-2.33-0.79c-0.55-0.55-0.84-1.34-0.84-2.33c0-1.04,0.25-1.84,0.79-2.38
			c0.5-0.55,1.24-0.84,2.13-0.84c0.89,0,1.54,0.25,2.04,0.74c0.5,0.5,0.74,1.19,0.74,2.04v0.79h-3.97c0,0.5,0.15,0.84,0.45,1.09
			c0.25,0.25,0.65,0.4,1.09,0.4c0.35,0,0.74-0.05,1.04-0.1c0.3-0.05,0.69-0.2,1.04-0.35v1.29c-0.3,0.15-0.6,0.25-0.94,0.35
			C223.8,87.59,223.4,87.64,222.9,87.64z M222.66,82.47c-0.35,0-0.65,0.1-0.84,0.35c-0.2,0.25-0.3,0.55-0.35,0.94h2.33
			c0-0.4-0.1-0.74-0.35-0.94C223.3,82.57,223.05,82.47,222.66,82.47z"/>
		<path class="st7" d="M228.71,87.64c-0.74,0-1.29-0.3-1.69-0.84c-0.4-0.55-0.6-1.34-0.6-2.33c0-0.99,0.2-1.79,0.65-2.33
			c0.4-0.55,0.99-0.84,1.74-0.84c0.79,0,1.34,0.3,1.79,0.89h0.05c-0.1-0.45-0.15-0.84-0.15-1.24v-1.99h1.69v8.54h-1.34l-0.35-0.79
			h-0.05C230.1,87.34,229.51,87.64,228.71,87.64z M229.31,86.3c0.45,0,0.74-0.15,0.94-0.4c0.2-0.25,0.3-0.69,0.35-1.29v-0.2
			c0-0.65-0.1-1.14-0.3-1.44s-0.55-0.45-0.99-0.45c-0.4,0-0.65,0.15-0.89,0.5c-0.2,0.3-0.3,0.79-0.3,1.39c0,0.6,0.1,1.04,0.3,1.34
			C228.61,86.15,228.91,86.3,229.31,86.3z"/>
		<path class="st7" d="M239.48,84.46c0,0.99-0.25,1.79-0.79,2.33c-0.55,0.55-1.24,0.84-2.18,0.84c-0.6,0-1.09-0.15-1.54-0.4
			s-0.79-0.65-1.04-1.09c-0.25-0.5-0.35-1.04-0.35-1.69c0-0.99,0.25-1.79,0.79-2.33c0.55-0.55,1.24-0.84,2.23-0.84
			c0.6,0,1.09,0.15,1.54,0.4s0.79,0.65,1.04,1.09C239.38,83.22,239.48,83.81,239.48,84.46z M235.26,84.46c0,0.6,0.1,1.09,0.3,1.39
			c0.2,0.3,0.55,0.45,0.99,0.45s0.74-0.15,0.94-0.45c0.2-0.3,0.3-0.79,0.3-1.39c0-0.6-0.1-1.04-0.3-1.39
			c-0.2-0.3-0.55-0.45-0.99-0.45s-0.74,0.15-0.94,0.45C235.36,83.37,235.26,83.81,235.26,84.46z"/>
		<path class="st7" d="M246.38,87.54h-1.69v-3.57c0-0.45-0.05-0.79-0.2-0.99c-0.15-0.2-0.4-0.35-0.69-0.35
			c-0.45,0-0.74,0.15-0.94,0.5c-0.2,0.3-0.3,0.84-0.3,1.54v2.88h-1.69v-6.16h1.29l0.25,0.79h0.1c0.15-0.3,0.4-0.5,0.69-0.65
			c0.3-0.15,0.65-0.25,1.09-0.25c0.94,0,1.54,0.3,1.89,0.89h0.15c0.15-0.3,0.4-0.5,0.74-0.65c0.3-0.15,0.69-0.25,1.09-0.25
			c0.69,0,1.24,0.2,1.59,0.55s0.55,0.94,0.55,1.74v4.02h-1.69v-3.57c0-0.45-0.05-0.79-0.2-0.99c-0.15-0.2-0.4-0.35-0.69-0.35
			c-0.4,0-0.69,0.15-0.94,0.45c-0.2,0.3-0.3,0.74-0.3,1.39v3.03H246.38z"/>
	</g>
	<g>
		<path class="st8" d="M174.56,47.03c-1.59,0-3.03,1.34-3.23,2.98c-0.2,1.64,0.89,2.98,2.43,2.98c1.59,0,3.03-1.34,3.23-2.98
			C177.24,48.37,176.14,47.03,174.56,47.03z"/>
		<path class="st8" d="M169.89,55.62l-4.81,15.39c-0.4,3.62,4.52,3.43,5.36,0.69c1.39-4.96,3.03-9.98,4.47-14.89
			C175.5,53.83,170.68,53.63,169.89,55.62z"/>
	</g>
	<path class="st6" d="M228.96,57.95L228.96,57.95c2.04-2.18,4.12-2.98,4.96-3.23c0.84-0.25,1.94-0.4,2.78-0.35
		c1.39,0.05,5.01,1.04,3.77,6.35c-0.2,0.79-0.3,1.29-0.79,2.88l-2.33,7.25c-0.35,1.09-0.89,1.69-1.39,2.13
		c-0.55,0.45-0.99,0.65-1.79,0.65c-1.74,0-2.58-0.55-1.84-2.83l1.99-6.01c0.5-1.59,1.29-3.28,0.99-4.52
		c-0.25-1.04-2.08-2.33-4.62-0.6c-0.89,0.6-1.94,1.69-2.63,2.78c-0.5,0.84-1.14,2.23-1.79,4.27l-1.29,4.02
		c-0.35,1.04-0.65,1.44-1.29,1.99c-0.65,0.55-1.39,0.84-2.23,0.84c-1.74,0-2.43-0.65-1.99-2.28l3.97-12.86
		c0.6-1.64,1.24-2.93,1.84-3.47c0.65-0.55,1.34-0.79,2.18-0.79c0.84,0,1.39,0.3,1.69,0.84C229.46,55.57,229.26,56.86,228.96,57.95z"
		/>
	<path class="st5" d="M267.33,73.74c-2.58,0-4.47-0.6-5.61-1.74c-1.14-1.14-1.54-2.78-1.09-4.96c0.1-0.45,0.25-0.94,0.4-1.49
		c0.15-0.55,0.35-1.04,0.6-1.59c1.29-3.08,3.13-5.51,5.56-7.25c2.38-1.74,5.06-2.63,8.04-2.63c2.48,0,4.27,0.6,5.31,1.69
		c1.04,1.14,1.34,2.83,0.89,5.01c-0.1,0.55-0.25,1.14-0.45,1.74c-0.69,2.13-1.09,2.68-3.08,2.78l-11.52-0.25l0,0l-0.1,0.25
		c-0.1,0.35-0.2,0.65-0.25,0.99c-0.2,1.14-0.05,1.99,0.4,2.53c0.5,0.55,1.34,0.84,2.58,0.84c0.89,0,1.74-0.2,2.53-0.55
		c0.79-0.35,1.39-0.84,1.84-1.39l0,0c2.08-1.34,6.06-1.04,5.11,0.5v0.05c-1.29,1.84-2.78,2.68-4.81,3.72
		C271.65,73.19,269.51,73.74,267.33,73.74L267.33,73.74z M275.97,62.02L275.97,62.02l0.15-0.65c0.2-1.09,0.1-1.89-0.35-2.38
		c-0.45-0.5-1.19-0.79-2.33-0.79c-1.39,0-2.68,0.5-3.77,1.54c-0.65,0.6-1.24,1.34-1.84,2.28l0,0
		C267.83,62.02,275.97,62.02,275.97,62.02z"/>
	<g>
		<path class="st9" d="M286.79,53.83c-0.74,0-1.49-0.15-2.18-0.4c-0.69-0.3-1.29-0.69-1.84-1.19c-0.55-0.5-0.94-1.09-1.24-1.79
			c-0.3-0.69-0.45-1.44-0.45-2.23c0-1.04,0.25-1.99,0.79-2.88c0.5-0.84,1.19-1.54,2.08-2.04c0.89-0.5,1.84-0.74,2.83-0.74
			c0.74,0,1.49,0.15,2.18,0.4c0.69,0.3,1.29,0.69,1.84,1.19c0.55,0.5,0.94,1.09,1.24,1.79s0.45,1.44,0.45,2.23s-0.15,1.54-0.45,2.23
			c-0.3,0.69-0.69,1.29-1.24,1.79c-0.55,0.5-1.14,0.89-1.84,1.19C288.28,53.68,287.53,53.83,286.79,53.83L286.79,53.83z
			 M282.17,48.17c0,0.89,0.2,1.69,0.6,2.38c0.4,0.69,0.94,1.29,1.64,1.69c0.69,0.4,1.49,0.6,2.33,0.6s1.59-0.2,2.28-0.6
			c0.69-0.4,1.24-0.99,1.64-1.69c0.4-0.69,0.6-1.54,0.6-2.38c0-0.65-0.1-1.29-0.35-1.84s-0.55-1.04-0.99-1.49
			c-0.4-0.45-0.89-0.74-1.44-0.99c-0.55-0.25-1.14-0.35-1.79-0.35s-1.24,0.1-1.79,0.35c-0.55,0.25-1.04,0.55-1.49,0.99
			c-0.45,0.45-0.74,0.94-0.99,1.49C282.32,46.93,282.17,47.53,282.17,48.17L282.17,48.17z M285.6,48.67h1.14l1.69,2.83h1.09
			l-1.84-2.83c1.14-0.15,1.69-0.74,1.69-1.79c0-0.65-0.2-1.09-0.55-1.39c-0.4-0.3-0.94-0.45-1.74-0.45h-2.48v6.5h0.99L285.6,48.67
			L285.6,48.67z M285.6,47.83h1.19c0.35,0,0.6,0,0.84-0.05c0.2-0.05,0.4-0.15,0.55-0.3c0.15-0.15,0.2-0.4,0.2-0.69
			c0-0.65-0.45-0.94-1.44-0.94h-1.34V47.83z"/>
		<path class="st10" d="M286.79,53.93c-0.79,0-1.54-0.15-2.23-0.45c-0.69-0.3-1.34-0.69-1.89-1.19c-0.55-0.5-0.99-1.14-1.29-1.84
			s-0.45-1.49-0.45-2.28c0-1.04,0.25-2.04,0.79-2.93c0.55-0.89,1.24-1.54,2.13-2.04c0.89-0.5,1.89-0.74,2.88-0.74
			c0.74,0,1.49,0.15,2.23,0.45c0.69,0.3,1.34,0.69,1.89,1.19c0.55,0.5,0.94,1.14,1.24,1.84c0.3,0.69,0.45,1.44,0.45,2.28
			c0,0.79-0.15,1.59-0.45,2.28c-0.3,0.69-0.74,1.34-1.24,1.84c-0.55,0.5-1.14,0.94-1.89,1.19
			C288.28,53.78,287.53,53.93,286.79,53.93z M286.79,42.71c-0.99,0-1.94,0.25-2.78,0.69c-0.84,0.5-1.54,1.14-2.04,1.99
			c-0.5,0.84-0.74,1.79-0.74,2.83c0,0.79,0.15,1.54,0.45,2.18c0.3,0.69,0.69,1.29,1.24,1.79c0.5,0.5,1.14,0.89,1.79,1.19
			c0.69,0.25,1.39,0.4,2.13,0.4c0.74,0,1.44-0.15,2.13-0.4c0.69-0.3,1.29-0.65,1.79-1.19c0.5-0.5,0.94-1.09,1.19-1.79
			c0.3-0.69,0.45-1.44,0.45-2.18c0-0.79-0.15-1.49-0.45-2.18c-0.3-0.65-0.69-1.24-1.19-1.74c-0.5-0.5-1.09-0.89-1.79-1.14
			C288.23,42.81,287.53,42.71,286.79,42.71z M286.79,52.99c-0.84,0-1.64-0.2-2.38-0.65c-0.69-0.4-1.29-0.99-1.69-1.74
			c-0.4-0.74-0.6-1.54-0.6-2.43c0-0.65,0.1-1.29,0.35-1.89c0.25-0.6,0.6-1.09,0.99-1.54c0.45-0.45,0.94-0.79,1.49-0.99
			c0.55-0.25,1.19-0.35,1.84-0.35s1.24,0.1,1.84,0.35c0.55,0.25,1.04,0.6,1.49,0.99c0.45,0.45,0.74,0.94,0.99,1.54
			s0.35,1.19,0.35,1.89c0,0.89-0.2,1.74-0.6,2.43c-0.4,0.74-0.99,1.29-1.69,1.74C288.43,52.79,287.63,52.99,286.79,52.99z
			 M286.79,43.66c-0.65,0-1.19,0.1-1.74,0.35c-0.55,0.25-1.04,0.55-1.44,0.94c-0.4,0.4-0.74,0.89-0.94,1.44
			c-0.25,0.55-0.35,1.14-0.35,1.79c0,0.84,0.2,1.64,0.6,2.33s0.94,1.24,1.64,1.64c0.69,0.4,1.44,0.6,2.28,0.6
			c0.79,0,1.59-0.2,2.23-0.6c0.69-0.4,1.24-0.94,1.59-1.64c0.4-0.69,0.6-1.49,0.6-2.33c0-0.65-0.1-1.24-0.35-1.79
			c-0.2-0.55-0.55-1.04-0.94-1.44c-0.4-0.4-0.89-0.74-1.44-0.94C287.98,43.76,287.38,43.66,286.79,43.66z M289.72,51.55h-1.34
			l-0.05-0.05l-1.69-2.78h-0.94v2.83h-1.19v-6.7h2.58c0.79,0,1.39,0.15,1.79,0.45c0.4,0.3,0.6,0.79,0.6,1.49
			c0,1.04-0.55,1.69-1.59,1.89L289.72,51.55z M288.48,51.35h0.84l-1.84-2.83h0.15c1.09-0.15,1.59-0.69,1.59-1.69
			c0-0.6-0.2-1.04-0.55-1.34c-0.35-0.3-0.89-0.45-1.64-0.45h-2.38v6.25h0.74v-2.83h1.29l0.05,0.05L288.48,51.35z M286.74,47.93
			h-1.29v-2.23h1.44c0.99,0,1.54,0.35,1.54,1.04c0,0.35-0.1,0.6-0.25,0.74c-0.15,0.15-0.35,0.3-0.6,0.35
			C287.38,47.88,287.09,47.93,286.74,47.93z M285.7,47.73h1.09c0.35,0,0.6,0,0.79-0.05c0.2-0.05,0.35-0.1,0.5-0.25
			c0.1-0.15,0.2-0.35,0.2-0.65c0-0.55-0.45-0.84-1.29-0.84h-1.24v1.79H285.7z"/>
	</g>
</g>
</svg>
