<svg id="Layer_1" data-name="Layer 1" xmlns="http://www.w3.org/2000/svg" viewBox="0 0 150 60"><defs><style>.cls-1{fill:#2257a7;}.cls-2{fill:#2882c0;}</style></defs><path class="cls-1" d="M65,36.51H63.54v-.58H67.1v.58H65.65v4.07H65Zm2.76-.58h1.14c.92,0,1.81.15,1.81,1.26a1.08,1.08,0,0,1-1,1.06v0c.2.07.3.18.45.46l.88,1.85h-.76L69.6,39c-.21-.46-.43-.46-.79-.46h-.39v2.07h-.67V35.93Zm.67,2H69c.63,0,1-.28,1-.73s-.32-.68-.93-.68h-.64v1.41Zm5.22-2h.7l2,4.65h-.73l-.47-1.17H72.82l-.47,1.17h-.7Zm.32.63L73,38.87h1.85Zm3-.63h1.37a2.28,2.28,0,0,1,2.48,2.29,2.19,2.19,0,0,1-2.48,2.36H77ZM77.64,40h.7a1.57,1.57,0,0,0,1.78-1.75,1.64,1.64,0,0,0-1.71-1.73h-.77Zm4.12-4.06h2.61v.58H82.43v1.37h1.76v.58H82.43V40h1.94v.59H81.76Zm5.27,0h.73l1.11,4h0l1-4h.94l1,4h0l1.12-4h.71l-1.44,4.65h-.86l-1-4.07h0l-1,4.07h-.9Zm7.41,0h.67v4.65h-.67Zm2.94.58H95.93v-.58h3.56v.58H98v4.07h-.66Zm3-.58H101v2h2.23v-2h.67v4.65h-.67V38.46H101v2.12h-.66Zm10.17.77a1.8,1.8,0,0,0-1-.26,1.82,1.82,0,0,0,0,3.63,2.29,2.29,0,0,0,1-.22l0,.64a2.88,2.88,0,0,1-1.06.17,2.29,2.29,0,0,1-2.46-2.43,2.32,2.32,0,0,1,2.46-2.38,2.52,2.52,0,0,1,1,.2l0,.65Zm2.76-.85a2.2,2.2,0,0,1,2.25,2.41,2.25,2.25,0,1,1-4.49,0,2.2,2.2,0,0,1,2.24-2.41m0,4.23c1.08,0,1.54-.9,1.54-1.82s-.51-1.83-1.54-1.82-1.53.87-1.53,1.82.46,1.82,1.53,1.82"/><path class="cls-1" d="M116.51,35.93h.9l2.06,3.74h0V35.93h.67v4.65h-.86l-2.1-3.82h0v3.82h-.66Zm4.81,0h2.47v.58H122v1.37h1.72v.58H122v2.12h-.67Zm3.4,0h.67v4.65h-.67Zm1.84,0h1.38a2.28,2.28,0,0,1,2.48,2.29,2.2,2.2,0,0,1-2.48,2.36h-1.38Zm.67,4.06h.7a1.56,1.56,0,0,0,1.78-1.75,1.63,1.63,0,0,0-1.7-1.73h-.78Zm4.12-4.06H134v.58H132v1.37h1.77v.58H132V40H134v.59h-2.61Zm3.7,0h.9L138,39.67h0V35.93h.67v4.65h-.85l-2.11-3.82h0v3.82h-.66Zm8.06.77a1.8,1.8,0,0,0-1-.26,1.82,1.82,0,0,0,0,3.63,2.28,2.28,0,0,0,1-.22l0,.64a2.85,2.85,0,0,1-1.06.17,2.29,2.29,0,0,1-2.45-2.43,2.31,2.31,0,0,1,2.45-2.38,2.52,2.52,0,0,1,1,.2l0,.65Zm.92-.77h2.61v.58H144.7v1.37h1.77v.58H144.7V40h1.94v.59H144Z"/><path class="cls-2" d="M15.66,20.45,4,40.63H9.88l5.88-10.18,5.88,10.18h5.87L15.86,20.45Zm29.73,0L33.74,40.63h5.87l5.88-10.18,5.88,10.18h5.88L45.6,20.45Zm-8.89,0L30.63,30.63,24.75,20.45H18.87L30.63,40.81,42.38,20.45Zm75.61,3.18a2.82,2.82,0,0,0-1.43-2.54,6.11,6.11,0,0,0-3.18-.6h-3.73v12.1h2V27h1.09l3.74,5.58h2.21l-4-5.8s0,0,0,0c2.17-.27,3.25-1.44,3.25-3.15M110,23.7a2.4,2.4,0,0,1-2.67,2.67h-1.5V21.11h1.4a3.37,3.37,0,0,1,1.7.35A2.41,2.41,0,0,1,110,23.7"/><path class="cls-2" d="M92.42,20.5v.67h4.29V32.59h2V21.17H103V20.5Zm28.05-.11h-1l-5.3,12.2h1.35L117,28.66h4.76l1.57,3.93h2.25l-5.13-12.2ZM117.28,28l2-5.44L121.5,28Zm17.3-6.64c-1.18-.67-2.2-.85-4.63-.85h-3.33V32.59h2.95c2.69,0,3.72-.18,5-.9,1.71-1,2.62-2.8,2.62-5.26a5.54,5.54,0,0,0-2.58-5.08Zm-.72,9.19c-.84,1-1.93,1.4-4,1.4h-1.18V21.15h1.41a4.84,4.84,0,0,1,3.36.92c1,.85,1.54,2.39,1.54,4.5a6.26,6.26,0,0,1-1.1,4Zm12.49-10h-7.54V32.59h7.83v-.67h-5.8V26.7h4.91V26h-4.91V21.17h5.51Z"/><path class="cls-1" d="M70.12,20.39h-1l-5.29,12.2h1.34l1.48-3.93h4.76L73,32.59h2.26l-5.14-12.2ZM66.93,28l2-5.44L71.16,28Zm11.21,4.73h1l5-12.22H82.86l-3.53,9.9-3.82-9.9H73.27Zm9.92-12.33h-1l-5.3,12.2h1.35l1.49-3.93h4.75l1.57,3.93H93.2l-5.14-12.2ZM84.87,28l2-5.44L89.09,28Z"/></svg>