<?xml version="1.0" encoding="utf-8"?>
<!-- Generator: Adobe Illustrator 26.3.1, SVG Export Plug-In . SVG Version: 6.00 Build 0)  -->
<svg version="1.1" id="Layer_1" xmlns="http://www.w3.org/2000/svg" xmlns:xlink="http://www.w3.org/1999/xlink" x="0px" y="0px"
	 viewBox="0 0 300 120" style="enable-background:new 0 0 300 120;" xml:space="preserve">
<style type="text/css">
	.st0{fill:#00E3CD;}
	.st1{fill:#00AAFF;}
</style>
<g>
	<g>
		<g>
			<g>
				<path class="st0" d="M264.9,36.9h-13.3V45h10c1.9,0,3.4,1.5,3.4,3.4l0,0c0,1.9-1.5,3.4-3.4,3.4h-10v14.1h-8.8V29.7h22.1
					c2,0,3.6,1.6,3.6,3.6l0,0C268.5,35.3,266.9,36.9,264.9,36.9z"/>
				<path class="st0" d="M279,46.5l9.9-16.8h-7.9l-6.1,11l-5.9-11H268c1,0.9,1.6,2.1,1.6,3.6c0,2.6-2.1,4.7-4.8,4.7H264l5,8.5
					l-11.2,19.2h8l7.2-13.1l7.2,13.1h9.8L279,46.5z"/>
			</g>
		</g>
		<g>
			<g>
				<g>
					<path class="st1" d="M146.8,37.5h-23.1v-7.3h23.1c2,0,3.6,1.6,3.6,3.7l0,0C150.5,35.9,148.9,37.5,146.8,37.5z"/>
				</g>
				<g>
					<path class="st1" d="M146.8,51.4h-23.1v-7.3h23.1c2,0,3.6,1.6,3.6,3.7l0,0C150.5,49.8,148.9,51.4,146.8,51.4z"/>
				</g>
				<g>
					<path class="st1" d="M146.8,64.3h-23.1V57h23.1c2,0,3.6,1.6,3.6,3.7l0,0C150.5,62.7,148.9,64.3,146.8,64.3z"/>
				</g>
			</g>
		</g>
		<g>
			<g>
				<path class="st1" d="M32.8,58.5H21l-1.8,5.4H9.3l13.1-33.3h9l13.4,33.3H34.6L32.8,58.5z M26.9,41l-3.6,10.3h7.3L26.9,41z"/>
			</g>
		</g>
		<g>
			<g>
				<path class="st1" d="M50.3,53.1h9.5c0,2.4,1.8,3.5,3.9,3.5c1.9,0,3.8-1,3.8-2.8c0-2.1-2.6-2.7-5.8-3.5c-4.8-1.2-11-2.7-11-10.2
					c0-6.5,4.8-10.3,12.7-10.3c8,0,12.6,4.1,12.6,10.9h-9.2c0-2.1-1.6-3.1-3.5-3.1c-1.6,0-3.2,0.7-3.2,2.3c0,1.9,2.5,2.5,5.6,3.3
					c4.9,1.3,11.3,2.9,11.3,10.5c0,7.3-5.6,11-13.3,11C55.6,64.7,50.3,60.4,50.3,53.1z"/>
			</g>
		</g>
		<g>
			<g>
				<path class="st1" d="M87.1,53.1h9.4c0,2.4,1.8,3.5,3.9,3.5c1.9,0,3.8-1,3.8-2.8c0-2.1-2.6-2.7-5.8-3.5
					c-4.8-1.2-10.9-2.7-10.9-10.2c0-6.5,4.8-10.3,12.7-10.3c8,0,12.6,4.1,12.6,10.9h-9.2c0-2.1-1.6-3.1-3.5-3.1
					c-1.6,0-3.2,0.7-3.2,2.3c0,1.9,2.5,2.5,5.6,3.3c4.9,1.3,11.3,2.9,11.3,10.5c0,7.3-5.6,11-13.3,11C92.3,64.7,87.1,60.4,87.1,53.1
					z"/>
			</g>
		</g>
		<g>
			<g>
				<path class="st1" d="M187.5,38.9h-9v25h-9.2v-25h-9v-8.2h27.3V38.9z"/>
			</g>
		</g>
		<g>
			<g>
				<path class="st1" d="M197.2,53.1h9.4c0,2.4,1.8,3.5,3.9,3.5c1.9,0,3.8-1,3.8-2.8c0-2.1-2.6-2.7-5.8-3.5
					c-4.8-1.2-10.9-2.7-10.9-10.2c0-6.5,4.8-10.3,12.7-10.3c8,0,12.6,4.1,12.6,10.9h-9.2c0-2.1-1.6-3.1-3.5-3.1
					c-1.6,0-3.2,0.7-3.2,2.3c0,1.9,2.5,2.5,5.6,3.3c4.9,1.3,11.3,2.9,11.3,10.5c0,7.3-5.6,11-13.3,11
					C202.4,64.7,197.2,60.4,197.2,53.1z"/>
			</g>
		</g>
	</g>
	<g>
		<path class="st1" d="M10.7,90.4V77.8h3.1c1.6,0,2.9,0.3,3.7,0.9c0.8,0.6,1.2,1.6,1.2,2.9c0,1.2-0.4,2.2-1.2,2.9s-1.9,1-3.3,1h-0.7
			v4.8L10.7,90.4L10.7,90.4z M13.4,83.5h0.4c0.7,0,1.3-0.2,1.6-0.5c0.3-0.3,0.5-0.8,0.5-1.4c0-0.6-0.2-1.1-0.5-1.3
			c-0.3-0.3-0.9-0.4-1.6-0.4h-0.4V83.5z"/>
		<path class="st1" d="M38.3,77.8v7.8c0,1.7-0.5,3-1.3,3.8s-2.2,1.3-4.1,1.3c-1.8,0-3.2-0.4-4.1-1.3c-0.9-0.8-1.4-2.1-1.4-3.8v-7.8
			h2.7v7.4c0,1,0.2,1.8,0.7,2.3c0.5,0.5,1.1,0.8,2,0.8s1.6-0.3,2.1-0.8c0.5-0.5,0.7-1.3,0.7-2.3v-7.4C35.6,77.8,38.3,77.8,38.3,77.8
			z"/>
		<path class="st1" d="M57.2,90.4h-3.1l-3.3-5.9v5.9h-2.7V77.8h3.8c1.5,0,2.7,0.3,3.4,0.9s1.1,1.5,1.1,2.7c0,0.9-0.2,1.6-0.8,2.2
			c-0.5,0.6-1.2,1-2,1.1L57.2,90.4z M50.8,83.2h0.4c1.1,0,1.8-0.1,2.1-0.4c0.3-0.2,0.5-0.7,0.5-1.2c0-0.6-0.2-1.1-0.6-1.3
			c-0.4-0.3-1.1-0.4-2.1-0.4h-0.4L50.8,83.2L50.8,83.2z"/>
		<path class="st1" d="M65.8,90.4V77.8h7.4v2.3h-4.7v2.6h4.7v2.3h-4.7v3.2h4.7v2.3L65.8,90.4L65.8,90.4z"/>
		<path class="st1" d="M104.3,90.4h-3.1l-3.3-5.9v5.9h-2.7V77.8h3.8c1.5,0,2.7,0.3,3.4,0.9c0.8,0.6,1.1,1.5,1.1,2.7
			c0,0.9-0.2,1.6-0.8,2.2c-0.5,0.6-1.2,1-2,1.1L104.3,90.4z M97.9,83.2h0.4c1.1,0,1.8-0.1,2.1-0.4c0.3-0.2,0.5-0.7,0.5-1.2
			c0-0.6-0.2-1.1-0.6-1.3c-0.4-0.3-1.1-0.4-2.1-0.4h-0.4L97.9,83.2L97.9,83.2z"/>
		<path class="st1" d="M111.4,90.4l4.8-12.6h3.1l4.8,12.6H121l-1-2.7h-4.9l-0.9,2.7H111.4z M119.4,85.6l-1.4-4.1l-0.2-0.6l-0.2-1.1
			c-0.1,0.4-0.1,0.8-0.2,1.1l-0.2,0.6l-1.4,4C115.9,85.6,119.4,85.6,119.4,85.6z"/>
		<path class="st1" d="M141.2,77.8l1.9,6.8c0.1,0.4,0.2,0.9,0.3,1.4s0.2,1,0.3,1.7c0-0.5,0-1,0.1-1.5c0-0.3,0.1-0.6,0.1-0.8
			c0-0.2,0.1-0.5,0.2-0.8l1.6-6.8h2.6l-3.3,12.6h-2.6l-2.2-8c-0.1-0.4-0.2-0.7-0.2-1.1c0-0.2-0.1-0.4-0.1-0.6c0-0.2,0-0.4,0-0.5
			c0,0.2,0,0.4,0,0.6s-0.1,0.4-0.1,0.7c0,0.3-0.1,0.6-0.2,1l-2.3,8h-2.6l-3.3-12.6h2.7l1.7,7c0,0,0,0.2,0.1,0.5
			c0,0.2,0.1,0.5,0.1,0.8c0,0.3,0.1,0.6,0.1,0.8c0,0.3,0,0.5,0,0.7c0.1-0.7,0.3-1.7,0.6-2.8l0-0.2l1.8-6.8L141.2,77.8L141.2,77.8z"
			/>
		<path class="st1" d="M174.2,80.1v10.3h-2.7V80.1h-3.1v-2.3h8.9v2.3H174.2z"/>
		<path class="st1" d="M195.1,90.4H192l-3.3-5.9v5.9h-2.7V77.8h3.8c1.5,0,2.7,0.3,3.4,0.9c0.8,0.6,1.1,1.5,1.1,2.7
			c0,0.9-0.2,1.6-0.8,2.2c-0.5,0.6-1.2,1-2,1.1L195.1,90.4z M188.8,83.2h0.4c1.1,0,1.8-0.1,2.1-0.4c0.4-0.2,0.5-0.7,0.5-1.2
			c0-0.6-0.2-1.1-0.6-1.3c-0.4-0.3-1.1-0.4-2.1-0.4h-0.4L188.8,83.2L188.8,83.2z"/>
		<path class="st1" d="M202.2,90.4l4.8-12.6h3.1l4.8,12.6h-3.1l-1-2.7H206l-0.9,2.7H202.2z M210.2,85.6l-1.4-4.1l-0.2-0.6l-0.2-1.1
			c-0.1,0.4-0.1,0.8-0.2,1.1l-0.2,0.6l-1.4,4C206.7,85.6,210.2,85.6,210.2,85.6z"/>
		<path class="st1" d="M223.3,90.4V77.8h3.4c1.3,0,2.4,0.1,3.2,0.3c0.4,0.1,0.8,0.2,1.1,0.4c0.3,0.2,0.6,0.3,1,0.6
			c0.8,0.6,1.3,1.3,1.7,2.1c0.4,0.9,0.6,1.8,0.6,2.9c0,1.1-0.2,2.1-0.6,3c-0.4,0.8-1,1.6-1.8,2.1c-0.6,0.4-1.2,0.7-1.9,0.9
			c-0.4,0.1-0.8,0.2-1.3,0.2s-1.1,0.1-1.8,0.1H226L223.3,90.4L223.3,90.4z M226,88.1h1.5c1.4,0,2.4-0.3,3.1-1c0.6-0.6,1-1.7,1-3.1
			s-0.3-2.4-1-3s-1.7-1-3.1-1H226V88.1L226,88.1z"/>
		<path class="st1" d="M243.6,90.4V77.8h2.7v12.6L243.6,90.4L243.6,90.4z"/>
		<path class="st1" d="M256.1,90.4V77.8h2.8l5.6,7.3c0.1,0.2,0.3,0.5,0.5,0.9c0.2,0.3,0.4,0.8,0.6,1.3c0-0.2,0-0.3-0.1-0.5
			c0-0.2,0-0.4-0.1-0.6c0-0.1,0-0.4,0-0.7c0-0.3,0-0.6,0-0.7v-7h2.6v12.6h-2.6l-5.7-7.4c-0.2-0.2-0.3-0.5-0.5-0.8
			c-0.2-0.4-0.4-0.8-0.6-1.4c0.1,0.3,0.1,0.7,0.1,1.1c0,0.2,0,0.4,0,0.7c0,0.3,0,0.6,0,0.7v7.2L256.1,90.4L256.1,90.4z"/>
		<path class="st1" d="M284,83.8h5.7l0,0.2l0,0.4c0,1.9-0.5,3.4-1.6,4.6c-1.1,1.2-2.5,1.8-4.2,1.8c-2,0-3.5-0.6-4.8-1.9
			c-1.3-1.2-1.9-2.8-1.9-4.7c0-1.9,0.6-3.5,1.9-4.7c1.3-1.2,2.9-1.9,4.8-1.9c1,0,2,0.2,2.8,0.6c0.9,0.4,1.6,1.1,2.3,1.9l-1.8,1.3
			c-0.4-0.6-0.9-1-1.4-1.2c-0.5-0.2-1.1-0.4-1.7-0.4c-1.2,0-2.2,0.4-3,1.2c-0.8,0.8-1.1,1.8-1.1,3.1c0,1.3,0.4,2.3,1.1,3.1
			c0.7,0.8,1.7,1.2,2.9,1.2c0.9,0,1.6-0.2,2.1-0.6c0.5-0.4,0.8-0.9,0.8-1.6V86h-3L284,83.8L284,83.8L284,83.8z"/>
	</g>
</g>
</svg>
