<?xml version="1.0" encoding="utf-8"?>
<!-- Generator: Adobe Illustrator 26.3.1, SVG Export Plug-In . SVG Version: 6.00 Build 0)  -->
<svg version="1.1" id="Layer_1" xmlns="http://www.w3.org/2000/svg" xmlns:xlink="http://www.w3.org/1999/xlink" x="0px" y="0px"
	 viewBox="0 0 16 16" style="enable-background:new 0 0 16 16;" xml:space="preserve">
<style type="text/css">
	.st0{fill:#53A559;}
	.st1{fill:none;stroke:#53A559;stroke-linecap:round;stroke-miterlimit:10;}
</style>
<path d="M22.6-1c0.4-0.4,1-0.4,1.4,0l6.3,6.3L36.6-1c0.4-0.4,1-0.4,1.4,0s0.4,1,0,1.4c0,0,0,0,0,0l-6.3,6.3L38,13
	c0.4,0.4,0.4,1,0,1.4c-0.4,0.4-1,0.4-1.4,0l-6.3-6.3L24,14.4c-0.4,0.4-1,0.4-1.4,0c-0.4-0.4-0.4-1,0-1.4l6.3-6.3l-6.3-6.3
	C22.2,0.1,22.2-0.6,22.6-1z"/>
<g>
	<path class="st0" d="M36.4,14.6c-0.4,0-0.9-0.2-1.2-0.5L22,0.9c-0.7-0.7-0.7-1.8,0-2.5c0.7-0.7,1.8-0.7,2.5,0l13.2,13.2
		c0.7,0.7,0.7,1.8,0,2.5C37.3,14.4,36.8,14.6,36.4,14.6z"/>
</g>
<g>
	<path class="st0" d="M33.1,14.6c-0.1,0-0.3,0-0.4-0.1c-0.2-0.2-0.2-0.4,0-0.6l4.4-3.2c0.2-0.2,0.6-0.2,0.8,0c0.2,0.2,0.2,0.4,0,0.6
		l-4.4,3.2C33.4,14.5,33.3,14.6,33.1,14.6z"/>
</g>
<g>
	<line class="st1" x1="1.1" y1="1.1" x2="14.9" y2="14.9"/>
	<line class="st1" x1="1.1" y1="14.9" x2="14.9" y2="1.1"/>
</g>
</svg>
