<svg id="Layer_1" data-name="Layer 1" xmlns="http://www.w3.org/2000/svg" viewBox="0 0 150 60"><defs><style>.cls-1{fill:#ffcf01;}.cls-2{fill:#2a2a2a;}</style></defs><path class="cls-1" d="M94.16,18.9,112.33,5.15h-9L89.65,15.61,86,13.24H77.45L85.25,19l-6,5.1c-3.08,2.61-7.39,6.26-13.78,6.26-2.52,0-6.09-.57-8.08-2.77L86.8,5.15H69c-10.9,0-16.47,6.3-16.47,14.1a13.88,13.88,0,0,0,.76,4.57L41.05,32.88H50.4l5.66-4.28a15.06,15.06,0,0,0,11,4.94c7.62.07,14.5-5,17-6.94l5.54-4.39L104,32.88h10.1ZM54.59,22.82a13,13,0,0,1-.35-3c0-5.22,3.66-9.74,13.28-9.74h5a22.52,22.52,0,0,0-3.64,2.35c-2.5,1.85-14.33,10.43-14.33,10.43"/><polygon class="cls-2" points="55.01 44.63 57.63 40.91 61.76 40.91 57.06 47.13 61.96 53.63 57.73 53.63 54.93 49.67 52.13 53.63 48 53.63 52.88 47.17 48.18 40.91 52.41 40.91 55.01 44.63"/><path class="cls-2" d="M97.74,52.26l1-2.79a9.5,9.5,0,0,0,4.69,1.65c1.07,0,1.56-.38,1.56-1v0c0-.79-1.26-1.06-2.7-1.49-1.82-.52-3.89-1.36-3.89-3.85v-.05c0-2.6,2.14-4.06,4.77-4.06A7.8,7.8,0,0,1,107.69,42l-.76,2.71a9,9,0,0,0-3.85-1.19c-.9,0-1.36.38-1.36.88v0c0,.72,1.24,1.05,2.65,1.53,1.83.6,3.94,1.46,3.94,3.8v.05c0,2.85-2.16,4.14-5,4.14a8.85,8.85,0,0,1-5.59-1.66"/><path class="cls-2" d="M110.94,52.26l1-2.79a9.5,9.5,0,0,0,4.69,1.65c1.07,0,1.56-.38,1.56-1v0c0-.79-1.26-1.06-2.7-1.49-1.82-.52-3.89-1.36-3.89-3.85v-.05c0-2.6,2.14-4.06,4.77-4.06A7.8,7.8,0,0,1,120.89,42l-.76,2.71a9,9,0,0,0-3.85-1.19c-.9,0-1.36.38-1.36.88v0c0,.72,1.24,1.05,2.65,1.53,1.83.6,3.94,1.46,3.94,3.8v.05c0,2.85-2.16,4.14-5,4.14a8.9,8.9,0,0,1-5.6-1.66"/><path class="cls-2" d="M65.38,40.9h3.81V43a5.42,5.42,0,0,1,4.15-2.27c2.76,0,4.4,1.48,4.4,5.47v7.47H74.08V46.46c0-1.55-.73-2.48-1.83-2.48a4,4,0,0,0-3.06,1.66v8H65.38Z"/><path class="cls-2" d="M46,50.3c-.38.93-1.6,3.65-6,3.65a6.54,6.54,0,0,1-4.79-1.75,6.3,6.3,0,0,1-2-4.87,6.61,6.61,0,0,1,1.91-4.9,6.38,6.38,0,0,1,4.69-1.76,5.94,5.94,0,0,1,4.87,2,7.41,7.41,0,0,1,1.5,4.89v.29H36.94a3.68,3.68,0,0,0,.6,2.11,3,3,0,0,0,2.51,1.18A3.22,3.22,0,0,0,43,49.54Zm-3-4.64a3,3,0,0,0-5.91,0Z"/><path class="cls-2" d="M94.19,50.3c-.37.93-1.6,3.65-6,3.65a6.54,6.54,0,0,1-4.78-1.75,6.3,6.3,0,0,1-2-4.87,6.65,6.65,0,0,1,1.9-4.9,6.4,6.4,0,0,1,4.7-1.76,6,6,0,0,1,4.87,2,7.47,7.47,0,0,1,1.5,4.89v.29H85.13A3.69,3.69,0,0,0,85.74,50a3,3,0,0,0,2.5,1.18,3.21,3.21,0,0,0,2.91-1.65Zm-3-4.64a3,3,0,0,0-5.9,0Z"/></svg>