<svg id="Layer_1" data-name="Layer 1" xmlns="http://www.w3.org/2000/svg" viewBox="0 0 150 60"><defs><style>.cls-1{fill:#142142;}.cls-2{fill:#57b5e0;}</style></defs><g id="layer"><path class="cls-1" d="M17.63,21.42a8.09,8.09,0,0,0-1.23-.09,3.29,3.29,0,0,0-2,.52,2.51,2.51,0,0,0-.88,1.65l-.19,1.05h3.21l-.5,2.82H12.85l-1.66,9.41H7.64L9.3,27.37h-2l.5-2.82h2l.15-.88a6.72,6.72,0,0,1,1.12-2.79,5.48,5.48,0,0,1,2.18-1.77,7.36,7.36,0,0,1,3.1-.62,11.33,11.33,0,0,1,1.77.14l-.49,2.79Zm98.79,5.94a11.24,11.24,0,0,0-3.1-.4c-1.7,0-2.63.41-2.77,1.23a.73.73,0,0,0,.14.64,1.29,1.29,0,0,0,.78.36l1.91.36a3.87,3.87,0,0,1,2.31,1.14,2.89,2.89,0,0,1,.39,2.39,4.13,4.13,0,0,1-1,2.1A5.22,5.22,0,0,1,113,36.54a8.86,8.86,0,0,1-3,.48,12.34,12.34,0,0,1-3.83-.54l.46-2.62a12.18,12.18,0,0,0,3.77.55,3.73,3.73,0,0,0,1.74-.31,1.22,1.22,0,0,0,.68-.9.8.8,0,0,0-.13-.69,1.45,1.45,0,0,0-.79-.36l-1.92-.35a3.62,3.62,0,0,1-2.3-1.18,3,3,0,0,1-.38-2.35,4.12,4.12,0,0,1,1-2.07,5.14,5.14,0,0,1,2.16-1.36,10.06,10.06,0,0,1,3.29-.48,16,16,0,0,1,1.71.1,10.89,10.89,0,0,1,1.5.28l-.46,2.62Zm-10-2.81-.5,2.82H102.7l-.79,4.49a3.41,3.41,0,0,0,0,1.31,1,1,0,0,0,.52.69,2.38,2.38,0,0,0,1.1.2,7.88,7.88,0,0,0,1.32-.14l-.5,2.83A10.91,10.91,0,0,1,102,37a4.11,4.11,0,0,1-3.23-1.12,4.09,4.09,0,0,1-.55-3.47l.89-5.05h-2l.49-2.82h2L101,20.24H104l-.76,4.31ZM92.58,29.64H88.47a5,5,0,0,1,1-2.33,2.17,2.17,0,0,1,1.66-.69,1.4,1.4,0,0,1,1.37.69,3.94,3.94,0,0,1,.12,2.33ZM95.19,26a4,4,0,0,0-3.66-1.64,7,7,0,0,0-3.22.73A6.06,6.06,0,0,0,86,27.23a9,9,0,0,0-1.27,3.43,7.58,7.58,0,0,0,.07,3.63,3.46,3.46,0,0,0,1.84,2.06,8.59,8.59,0,0,0,3.7.67A16.58,16.58,0,0,0,94,36.6l.47-2.67a14.69,14.69,0,0,1-3.16.39,6.47,6.47,0,0,1-2-.25,1.57,1.57,0,0,1-1-.82,2.8,2.8,0,0,1-.15-1.54h7.42l.17-.94c.37-2.09.19-3.68-.52-4.77ZM81.48,24.55H85.3l-4.93,5.88,3.16,6.35H79.64l-2.49-4.85H75.72l-.85,4.85H71.29l3.19-18.06h3.57L76.23,29.07h1.41l3.85-4.52ZM71.36,27.71a5.67,5.67,0,0,0-1.19-.11,4.7,4.7,0,0,0-1.66.32,3.53,3.53,0,0,0-1.36.86l-1.41,8H62.16l2.16-12.23h2.92v1.58h.17A4.08,4.08,0,0,1,69,24.82a4.55,4.55,0,0,1,2-.43,5.68,5.68,0,0,1,1,.08l-.57,3.24Zm-14.45,6a3,3,0,0,1-1,.59,3.38,3.38,0,0,1-1.07.18,1.59,1.59,0,0,1-1.14-.35,1.14,1.14,0,0,1-.23-1,1.6,1.6,0,0,1,.65-1.08,3.06,3.06,0,0,1,1.55-.47l1.65-.12-.41,2.29Zm4.2-7.28a2.7,2.7,0,0,0-1.54-1.62,8.31,8.31,0,0,0-3.15-.49,16.53,16.53,0,0,0-2,.14,13.68,13.68,0,0,0-2,.38l-.48,2.68a12,12,0,0,1,1.75-.37,12.83,12.83,0,0,1,1.66-.12,4.75,4.75,0,0,1,1.6.21,1.14,1.14,0,0,1,.75.68,2.49,2.49,0,0,1,0,1.33l0,.16-2,.17a8,8,0,0,0-4.06,1.13,4,4,0,0,0-1.7,2.71A3.17,3.17,0,0,0,50,35.32a2.39,2.39,0,0,0,1.15,1.24,4.16,4.16,0,0,0,2,.44,5.13,5.13,0,0,0,1.93-.35,4.1,4.1,0,0,0,1.57-1.08h.17l0,1.21h3l1.28-7.26a6.21,6.21,0,0,0,0-3.05ZM48.83,29.18l-1.34,7.6H43.92l1.31-7.41a1.94,1.94,0,0,0-.16-1.49A1.28,1.28,0,0,0,44,27.44a3.17,3.17,0,0,0-1.08.2,2.78,2.78,0,0,0-1,.64c0,.24-.06.51-.11.79l-1.36,7.71H37l1.31-7.41a2,2,0,0,0-.13-1.49,1.19,1.19,0,0,0-1.06-.44,2.89,2.89,0,0,0-1.16.25,3,3,0,0,0-1,.76l-1.47,8.33H29.86L32,24.55H35l0,1.24h.16a5.29,5.29,0,0,1,3.69-1.43,3.68,3.68,0,0,1,1.75.39A2.38,2.38,0,0,1,41.66,26a6.31,6.31,0,0,1,1.93-1.2,5.61,5.61,0,0,1,2-.39,3.26,3.26,0,0,1,2.77,1.17,4.67,4.67,0,0,1,.45,3.65ZM25.27,30.71A4.84,4.84,0,0,1,24,33.44a3.45,3.45,0,0,1-2.47.85,6.44,6.44,0,0,1-1.38-.14l1.06-6a2.84,2.84,0,0,1,1-.62,3.29,3.29,0,0,1,1.15-.21,1.87,1.87,0,0,1,1.7.77,3.93,3.93,0,0,1,.17,2.66ZM28.85,27a3.52,3.52,0,0,0-1.45-2A4.51,4.51,0,0,0,25,24.36a4.91,4.91,0,0,0-2,.4,4.77,4.77,0,0,0-1.56,1.09h-.17v-1.3h-3l-3,17.15h3.58l.84-4.78a12.69,12.69,0,0,0,1.4.08,7.92,7.92,0,0,0,5.26-1.68,8,8,0,0,0,2.57-4.89A7.38,7.38,0,0,0,28.85,27Z"/><path class="cls-2" d="M125.89,39.81c-6-4.07-7.72-15,2.41-19.28-4,3-7.38,8.42-2.18,15.29,3.54-2.37,10.09-6.52,14.57-17.74C140.5,20,140.35,29,125.89,39.81Z"/><path class="cls-1" d="M127.94,41c5.25,2.54,16.21,0,16-10.42-1.37,5.93-5.39,8.4-10.13,8.51,2.37-3.54,8.88-10.09,7-20.71-.91,11.15-7.61,17.06-12.9,22.62Z"/></g></svg>