<svg id="Layer_1" data-name="Layer 1" xmlns="http://www.w3.org/2000/svg" viewBox="0 0 150 60"><defs><style>.cls-1{fill:#3f3f3f;}.cls-2{fill:#98cc49;}</style></defs><path class="cls-1" d="M4.39,46.7l-.12.12c-.09,0-.07-.11-.07-.18l.1-.14s.07,0,.07-.07a25.49,25.49,0,0,1,3.11-3.21,31.36,31.36,0,0,1,7-4.65,32.87,32.87,0,0,1,8.24-2.69,36.28,36.28,0,0,1,7.79-.56,42.66,42.66,0,0,1,5.16.48c1.57.25,3.12.57,4.66,1a58.1,58.1,0,0,1,6.7,2.16l.13.07-1.15.65L43.14,41.3a7.19,7.19,0,0,1-2.13,1,5.78,5.78,0,0,1-2.55,0,57.86,57.86,0,0,0-7.38-1.41,52,52,0,0,0-7.48-.41,40.42,40.42,0,0,0-4.91.38,32.23,32.23,0,0,0-8.35,2.29,26.49,26.49,0,0,0-5.61,3.34s-.07,0-.06.07l-.2.16S4.4,46.65,4.39,46.7Z"/><path class="cls-2" d="M45.55,21.61a6.58,6.58,0,0,1-1.33,0,1.88,1.88,0,0,1-1.28-1,3.8,3.8,0,0,0-3.85-2,5.9,5.9,0,0,0-1.81.33A3.86,3.86,0,0,0,35,21.24a9.33,9.33,0,0,0-.69,3.9,8.41,8.41,0,0,0,1.2,4.17A3.71,3.71,0,0,0,38.06,31a5.81,5.81,0,0,0,2.49-.05,3.44,3.44,0,0,0,2.34-1.88,7.52,7.52,0,0,0,.39-1,.42.42,0,0,1,.47-.32c1,0,1.89,0,2.84,0,.23,0,.3.06.28.29A6.55,6.55,0,0,1,44,33.12a8.51,8.51,0,0,1-4,1.43,8.34,8.34,0,0,1-6.18-1.89,8.88,8.88,0,0,1-2.74-4,11.38,11.38,0,0,1-.67-4.2,10.87,10.87,0,0,1,.76-3.81,9.77,9.77,0,0,1,1.94-3.19,6.83,6.83,0,0,1,2.82-1.74,11,11,0,0,1,4.74-.41A7.14,7.14,0,0,1,45,17.22a5.93,5.93,0,0,1,1.28,1.92,10.21,10.21,0,0,1,.57,2.22c0,.2,0,.26-.22.25Z"/><path class="cls-1" d="M64,33.62q.63-2.49,1.25-4.93l1.86-7.31c.13-.5.26-1,.37-1.5.05-.26.15-.38.45-.37,1.69,0,3.38,0,5.07,0,.31,0,.3.15.3.37l0,8c0,3.38,0,6.77.06,10.15,0,.23-.05.3-.27.3-1,0-2,0-3,0-.28,0-.33-.11-.33-.36,0-4,0-8-.06-11.95,0-.79,0-1.58,0-2.37A5.3,5.3,0,0,0,69.28,25c-.66,2.63-1.31,5.27-2,7.9q-.61,2.49-1.22,5c-.07.33-.22.42-.55.41-1,0-2.06,0-3.1,0a.47.47,0,0,1-.56-.42c-.32-1.29-.65-2.57-1-3.86-.72-2.74-1.43-5.48-2.15-8.21a21.66,21.66,0,0,0-.65-2.22v2.08l.06,12c0,.6,0,.6-.59.61-.86,0-1.72,0-2.58,0-.34,0-.44-.08-.44-.43,0-5,0-10-.06-15,0-.43,0-.86,0-1.29a2,2,0,0,1,2-2c1.16,0,2.32,0,3.48,0,.31,0,.3.21.35.38.47,1.78.93,3.56,1.4,5.35q1,4,2.11,8C63.85,33.39,63.84,33.52,64,33.62Z"/><path class="cls-2" d="M25.7,26V22.18c0-1.17,0-2.34,0-3.51a8.09,8.09,0,0,1,.11-1.47,1.56,1.56,0,0,1,1.46-1.3,12.67,12.67,0,0,1,1.85-.07c.24,0,.2.17.21.32,0,1,0,2.06,0,3.08,0,2.28,0,4.56.07,6.84s0,4.61,0,6.92c0,.26,0,.53,0,.8s-.06.24-.23.24c-1.07,0-2.14.06-3.22,0-.19,0-.23-.08-.23-.26,0-1,0-1.94,0-2.92,0-1.61,0-3.23,0-4.85Z"/><path class="cls-1" d="M109.2,38.1H107c-.67,0-1.34,0-2,0a.49.49,0,0,1-.5-.3q-1.23-2.28-2.48-4.54a4.36,4.36,0,0,0-.79-1.07.67.67,0,0,0-.82-.15.75.75,0,0,0-.45.71c0,1.62,0,3.24,0,4.86,0,.37-.06.53-.49.52-1,0-2,0-3,0-.27,0-.37,0-.37-.34,0-3,0-6.11,0-9.16,0-2.89,0-5.79-.07-8.68,0-.4.08-.56.51-.52s1,0,1.51,0a1.74,1.74,0,0,1,1.79,1.75c0,2.43,0,4.87.06,7.3,0,.11,0,.22,0,.43l1-1.18,3.31-3.87a.54.54,0,0,1,.42-.24H109c-.09.3-.36.46-.55.67q-2.1,2.31-4.23,4.58a.43.43,0,0,0-.07.63c1.08,1.8,2.14,3.61,3.21,5.41Z"/><path class="cls-1" d="M118.34,31.79H114c-.16,0-.34-.07-.37.22a2.94,2.94,0,0,0,2.17,3.07,2.8,2.8,0,0,0,3.07-1,1.12,1.12,0,0,1,.92-.47l2.79,0c.27,0,.27.09.21.31a5.86,5.86,0,0,1-3,3.68c-2,1.05-5.64,1.23-7.78-.68a6.13,6.13,0,0,1-1.88-3.06,10.78,10.78,0,0,1,.18-6.67,5.58,5.58,0,0,1,4.8-3.8,7.82,7.82,0,0,1,4.53.62,6,6,0,0,1,3.17,4.43,13.34,13.34,0,0,1,.25,3c0,.26-.07.36-.36.36-1.47,0-2.93,0-4.39,0Zm-2-2.43v0h2.45c.16,0,.35,0,.32-.21a3.38,3.38,0,0,0-.8-2,3,3,0,0,0-3.09-.51,2.89,2.89,0,0,0-1.64,2.47c0,.3.17.27.36.27Z"/><path class="cls-1" d="M132.54,33.16c.51,0,1,0,1.54,0,.17,0,.26,0,.31.21a2.23,2.23,0,0,0,2.3,1.94,3.71,3.71,0,0,0,2.44-.44,1,1,0,0,0,.05-1.75,4.76,4.76,0,0,0-1.89-.67A17.4,17.4,0,0,1,133,31.13a3.9,3.9,0,0,1-1.33-5.77,5.05,5.05,0,0,1,3.69-2.09,8.49,8.49,0,0,1,5,.58,4.52,4.52,0,0,1,2.6,3.81c0,.2-.06.26-.24.25-.79,0-1.58,0-2.37,0a1.53,1.53,0,0,1-1.15-.66,3.23,3.23,0,0,0-3.86-.89,1.06,1.06,0,0,0-.63.9c-.05.43.22.66.53.86a5,5,0,0,0,1,.42c1.24.4,2.55.52,3.78,1a7.24,7.24,0,0,1,2.37,1.15,3.47,3.47,0,0,1,1.09,3.2,4.34,4.34,0,0,1-3.77,4.08,11.48,11.48,0,0,1-5.82-.08,4.35,4.35,0,0,1-3.22-4.38c0-.21,0-.3.29-.29.53,0,1.06,0,1.59,0Z"/><path class="cls-1" d="M86.46,30.27a32.28,32.28,0,0,1,0,3.26,5,5,0,0,1-4.15,4.67,10.58,10.58,0,0,1-4.48.16,3.88,3.88,0,0,1-3.09-2.19,5,5,0,0,1,.34-5,4.54,4.54,0,0,1,2.44-1.5,28.46,28.46,0,0,1,3.66-.7,3.43,3.43,0,0,0,1.34-.55,1,1,0,0,0,0-1.61,4.28,4.28,0,0,0-3.6-.06c-.09.06-.23.11-.27.2-.23.53-.68.49-1.15.48-.8,0-1.6,0-2.4,0-.39,0-.43-.14-.35-.46A4.21,4.21,0,0,1,77.37,24,9.4,9.4,0,0,1,84,24a3.53,3.53,0,0,1,2.42,3.66C86.45,28.55,86.46,29.41,86.46,30.27ZM82.93,32v-.79c0-.15,0-.27-.22-.18a21.75,21.75,0,0,1-3.33.95,1.94,1.94,0,0,0-1.47,1.12A1.71,1.71,0,0,0,79,35.47a3.26,3.26,0,0,0,2.74-.5A3.18,3.18,0,0,0,82.93,32Z"/><path class="cls-1" d="M20.32,29.55V24.33c0-.21,0-.29.27-.29,1.05,0,2.09,0,3.14,0,.18,0,.23,0,.23.22,0,3.32,0,6.63,0,10,0,.18-.05.25-.25.28a25.21,25.21,0,0,0-3.12.58c-.24.07-.25-.05-.25-.23V29.55Z"/><path class="cls-1" d="M130.41,36.58a5.59,5.59,0,0,0,0,.82c.06.45-.09.62-.56.64a26.77,26.77,0,0,1-3.47-.1,2.11,2.11,0,0,1-2-2.34c0-1.94,0-3.87,0-5.8,0-3.35,0-6.71-.05-10.06,0-.35.09-.47.45-.45s.89,0,1.33,0a1.83,1.83,0,0,1,2,2c0,.65,0,1.29,0,1.94,0,.33.11.41.43.4.51,0,1,0,1.54,0,.14,0,.27,0,.27.17a2.13,2.13,0,0,1-.78,2.13,2,2,0,0,1-1.15.29c-.22,0-.3.08-.29.3l.06,7.87a.77.77,0,0,0,.8.78,6.49,6.49,0,0,0,1.08,0c.3,0,.37.1.36.37s0,.72,0,1.07Z"/><path class="cls-1" d="M15.21,32.78c0-1.24,0-2.48,0-3.72,0-.17,0-.21.21-.22,1.06,0,2.12,0,3.19,0,.2,0,.23.07.23.25,0,1.68,0,3.36,0,5,0,.38,0,.77,0,1.15,0,.19,0,.27-.24.33a28.44,28.44,0,0,0-3.09,1.11c-.28.12-.29.12-.29-.19V32.78Z"/><path class="cls-1" d="M87.32,33.84c0-1.3-.1-2.61,0-3.91a6.54,6.54,0,0,1,2.13-4.54,6.94,6.94,0,0,1,3.41-1.51A12.6,12.6,0,0,1,95,23.67c.3,0,.43.06.42.4,0,1,0,2.06,0,3.09,0,.29,0,.4-.37.39a8.62,8.62,0,0,0-1.76.08A2.4,2.4,0,0,0,91.14,30c-.13,1.5,0,3,0,4.51,0,1.11,0,2.21,0,3.31,0,.28-.09.34-.34.34-1,0-2.07,0-3.1,0-.31,0-.38-.1-.38-.39C87.32,36.48,87.32,35.16,87.32,33.84Z"/><path class="cls-1" d="M9.78,39.84a.5.5,0,0,1,0-.31l0-6.94c0-.21.05-.27.26-.27,1.07,0,2.13,0,3.19,0,.15,0,.18,0,.18.18,0,1.7,0,3.4,0,5.09a.19.19,0,0,1-.14.2C12.09,38.34,11,39,10,39.67A1.4,1.4,0,0,0,9.78,39.84Z"/><path class="cls-2" d="M59.63,18.05c0,.08,0,.12-.11.12S59.55,18.05,59.63,18.05Z"/><path class="cls-2" d="M60.11,18.15c0-.08,0-.12.11-.11S60.2,18.16,60.11,18.15Z"/></svg>