<?xml version="1.0" encoding="utf-8"?>
<!-- Generator: Adobe Illustrator 26.3.1, SVG Export Plug-In . SVG Version: 6.00 Build 0)  -->
<svg version="1.1" id="Layer_1" xmlns="http://www.w3.org/2000/svg" xmlns:xlink="http://www.w3.org/1999/xlink" x="0px" y="0px"
	 viewBox="0 0 300 120" style="enable-background:new 0 0 300 120;" xml:space="preserve">
<style type="text/css">
	.st0{fill:#1476C4;}
</style>
<path class="st0" d="M21.8,66.8c0,2.9-0.5,4.9-1.6,6.1c-1.1,1.2-2.7,1.8-5.1,1.8c-1.4,0-2.8-0.3-4.1-0.9c-1.2-0.5-2.3-1.1-3.4-1.8
	l-2.5,5.4c1.2,0.9,2.6,1.7,4.1,2.2c2,0.7,4.1,1.1,6.3,1.1c2.2,0.1,4.4-0.3,6.5-1.1c1.6-0.6,3-1.6,4.1-2.9c1-1.2,1.7-2.7,2.1-4.3
	c0.4-1.7,0.6-3.5,0.6-5.2V41.6h-7V66.8z"/>
<path class="st0" d="M52.9,74.4c-0.7,0.1-1.4,0.2-2.1,0.3c-0.9,0.1-1.8,0.1-2.6,0.1c-2.3,0-3.9-0.7-4.8-2c-0.9-1.4-1.4-3.6-1.4-6.8
	V50.6h-6.8v16.5c0,1.8,0.2,3.7,0.6,5.5c0.4,1.6,1.1,3,2.1,4.3c1,1.2,2.3,2.2,3.8,2.8c1.9,0.7,3.9,1.1,5.9,1c2.3,0,4.6-0.2,6.9-0.5
	c2.1-0.4,3.8-0.7,5.1-1V50.6h-6.8V74.4L52.9,74.4z"/>
<path class="st0" d="M81.4,66.3c-0.8-0.8-1.7-1.5-2.7-2c-1.3-0.7-2.7-1.3-4-1.8c-0.8-0.3-1.6-0.6-2.4-1c-0.6-0.3-1.1-0.6-1.6-1
	c-0.4-0.3-0.7-0.6-0.9-1.1c-0.2-0.4-0.3-0.8-0.2-1.3c0-0.5,0.1-0.9,0.3-1.3c0.2-0.4,0.6-0.7,1-0.9c1-0.5,2.2-0.8,3.3-0.7
	c1.3,0,2.7,0.1,4,0.4c1,0.2,1.9,0.5,2.8,0.9l1.2-5.5c-1.1-0.4-2.3-0.7-3.5-0.9c-1.6-0.3-3.2-0.5-4.9-0.5c-3.4,0.1-6,0.9-8,2.4
	c-1,0.8-1.7,1.7-2.2,2.8c-0.5,1.1-0.7,2.3-0.7,3.5c0,1.2,0.2,2.4,0.6,3.5c0.4,0.9,1,1.8,1.7,2.4c0.8,0.7,1.7,1.3,2.6,1.8
	c1.1,0.6,2.2,1,3.3,1.5c1.5,0.5,2.9,1.2,4.3,2c0.4,0.3,0.7,0.6,0.9,1c0.2,0.4,0.3,0.9,0.4,1.4c0,0.4-0.1,0.9-0.3,1.3
	c-0.2,0.4-0.5,0.7-0.9,0.9c-1.2,0.5-2.5,0.7-3.9,0.6c-1.6,0-3.2-0.2-4.7-0.6c-1.2-0.3-2.4-0.7-3.6-1.2L62.2,79
	c1.1,0.4,2.2,0.8,3.3,1c2,0.5,4.1,0.7,6.1,0.6c3.8,0,6.7-0.7,8.7-2.2c2-1.4,3-3.6,3.1-6.4c0-1.1-0.1-2.3-0.5-3.4
	C82.6,67.9,82.1,67,81.4,66.3L81.4,66.3z"/>
<path class="st0" d="M293.3,66.3c-0.8-0.8-1.7-1.5-2.7-2c-1.3-0.7-2.7-1.3-4.1-1.8c-0.8-0.3-1.6-0.6-2.4-1c-0.6-0.3-1.1-0.6-1.6-1
	c-0.4-0.3-0.7-0.6-0.8-1.1c-0.2-0.4-0.3-0.8-0.3-1.3c0-0.5,0.1-0.9,0.3-1.3s0.6-0.7,1-0.9c1-0.5,2.2-0.8,3.3-0.7
	c1.3,0,2.7,0.1,4,0.4c1,0.2,1.9,0.5,2.8,0.9l1.2-5.5c-1.1-0.4-2.3-0.7-3.5-0.9c-1.6-0.3-3.2-0.5-4.9-0.5c-3.4,0-6,0.8-8,2.3
	c-1,0.8-1.7,1.7-2.2,2.8c-0.5,1.1-0.7,2.3-0.7,3.5c0,1.2,0.2,2.4,0.6,3.5c0.4,0.9,1,1.8,1.7,2.4c0.8,0.7,1.7,1.3,2.6,1.8
	c1.1,0.6,2.2,1,3.3,1.5c1.5,0.5,2.9,1.3,4.3,2.2c0.4,0.3,0.7,0.6,1,1c0.2,0.4,0.4,0.9,0.4,1.4c0,0.4-0.1,0.9-0.3,1.3
	c-0.2,0.4-0.5,0.7-0.9,0.9c-1.2,0.5-2.5,0.7-3.9,0.6c-1.6,0-3.2-0.2-4.7-0.6c-1.2-0.3-2.4-0.7-3.6-1.2l-1.2,5.7
	c1.1,0.4,2.2,0.8,3.3,1c2,0.5,4.1,0.7,6.1,0.6c3.8,0,6.7-0.7,8.7-2.2c2-1.4,3-3.6,3.1-6.4c0-1.1-0.1-2.3-0.5-3.4
	C294.5,67.9,294,67,293.3,66.3L293.3,66.3z"/>
<path class="st0" d="M102.9,74.6c-1,0.3-2.1,0.4-3.2,0.4c-1.7,0-3-0.5-3.7-1.5c-0.7-1-1.1-2.7-1.1-5V56.7h10.2v-5.6H94.9v-8.7h-6.6
	v26.2c0,1.7,0.1,3.4,0.5,5.1c0.3,1.4,0.9,2.7,1.7,3.8c0.9,1.1,2,1.9,3.3,2.4c1.6,0.6,3.4,0.9,5.1,0.8c1.5,0,2.9-0.2,4.4-0.5
	c1-0.3,2-0.6,3-1l-1.1-5.3C104.4,74.2,103.7,74.4,102.9,74.6L102.9,74.6z"/>
<path class="st0" d="M268.4,74.6c-1,0.3-2.1,0.4-3.2,0.4c-1.8,0-3-0.5-3.7-1.5c-0.7-1-1.1-2.7-1.1-5V56.7h10.2v-5.6h-10.2v-8.7h-6.6
	v26.2c0,1.7,0.1,3.4,0.5,5.1c0.3,1.4,0.8,2.7,1.7,3.8c0.8,1.1,2,1.9,3.3,2.4c1.6,0.6,3.4,0.9,5.1,0.8c1.5,0,2.9-0.2,4.4-0.5
	c1-0.3,2-0.6,3-1l-1.1-5.3C270.1,74.1,269.4,74.3,268.4,74.6z"/>
<path class="st0" d="M237.1,49.8c-1.7,0-3.4,0.3-5,1c-1.6,0.7-3.1,1.7-4.3,2.9c-1.3,1.4-2.3,3.1-3,4.9c-0.8,2.2-1.2,4.5-1.1,6.8
	c0,2.1,0.3,4.1,0.9,6.1c0.6,1.8,1.5,3.4,2.7,4.8c1.3,1.4,2.9,2.5,4.7,3.2c2.1,0.8,4.4,1.2,6.6,1.2c1,0,1.9-0.1,2.9-0.2
	c1-0.1,1.9-0.3,2.7-0.4c0.7-0.1,1.5-0.3,2.2-0.6c0.5-0.2,1-0.4,1.5-0.6l-0.9-5.6c-1,0.4-2.1,0.7-3.2,1c-1.5,0.3-3,0.5-4.5,0.4
	c-2.8,0-4.9-0.6-6.3-1.9c-0.8-0.7-1.4-1.6-1.8-2.5c-0.4-0.9-0.7-2-0.7-3h19.1c0-0.4,0.1-0.8,0.1-1.3c0-0.5,0-0.9,0-1.3
	c0-5-1.1-8.8-3.3-11.3C244.2,51,241.1,49.8,237.1,49.8z M230.6,62.3c0.1-0.9,0.3-1.7,0.6-2.5c0.3-0.8,0.7-1.6,1.2-2.2
	c0.5-0.6,1.2-1.2,2-1.5c0.8-0.4,1.8-0.6,2.7-0.6c0.9,0,1.8,0.2,2.6,0.5c0.7,0.3,1.3,0.9,1.8,1.5c0.5,0.7,0.9,1.4,1.1,2.2
	c0.3,0.9,0.4,1.8,0.4,2.7L230.6,62.3z"/>
<path class="st0" d="M190.2,50.6c-3.8,0-6.7,1.1-8.6,3.2c-1.9,2.2-2.8,5.2-2.8,9v17.9h6.5V62.9c0-0.9,0.1-1.8,0.3-2.6
	c0.2-0.8,0.5-1.5,0.9-2.1c0.5-0.6,1-1,1.7-1.3c0.8-0.3,1.7-0.5,2.6-0.5c0.9,0,1.7,0.1,2.6,0.3c0.7,0.2,1.4,0.4,2.1,0.7l1.2-5.7
	c-0.8-0.3-1.7-0.5-2.6-0.7C192.8,50.7,191.5,50.6,190.2,50.6L190.2,50.6z"/>
<path class="st0" d="M174.5,79.2c-2.3,0.4-4.7,0.8-7.2,1.1c-3.7,0.4-7.5,0.7-11.2-0.3c-3.1-0.8-5.7-2.3-6.4-5.6
	c-1.2-5.7,1.3-9.8,7.4-10.7c2.6-0.4,5.3-0.3,7.9-0.5l2.8-0.1c1-3.9-1.3-7-5.1-7.3c-3.5-0.2-7,0.2-10.4,1.2c-0.3,0.1-0.6,0.1-1,0.2
	c0-1.7,0-3.2,0-4.8c0-0.2,0.3-0.4,0.5-0.4c4.4-0.9,8.8-1.8,13.2-1.2c6,0.8,9.2,4,9.4,9.9c0.3,6.1,0.1,12.1,0.1,18.2
	C174.6,79,174.6,79.1,174.5,79.2L174.5,79.2z M168,67.7c-2.6,0-5,0-7.4,0c-0.8,0.1-1.5,0.3-2.2,0.6c-0.8,0.3-1.4,0.8-1.9,1.5
	c-0.4,0.7-0.6,1.5-0.5,2.3c0.1,1.9,0.9,3.1,2.8,3.6c3.1,0.8,6.2,0.4,9.2-0.2L168,67.7z"/>
<path class="st0" d="M141.3,41.6h-1.4l-10.6,20.9L119,41.6h-1.4h-6.5v11.6v27.5h6.5V53.2h1.4l10.1,18.5l10.8-18.5h1.4v27.5h6.5V53.2
	V41.6H141.3z"/>
<path class="st0" d="M205.7,40h-6.5v40.8h6.5V40z"/>
<path class="st0" d="M214.9,52.2h7l-9.9,13l-5.6-1.4L214.9,52.2z"/>
<path class="st0" d="M215.9,79.9h6.9l-10.6-13.9l-5.7,1.4L215.9,79.9z"/>
<path class="st0" d="M212.2,62.8H200v5.7h12.2V62.8z"/>
</svg>
