<?xml version="1.0" encoding="utf-8"?>
<!-- Generator: Adobe Illustrator 25.2.3, SVG Export Plug-In . SVG Version: 6.00 Build 0)  -->
<svg version="1.1" id="Layer_1" xmlns="http://www.w3.org/2000/svg" xmlns:xlink="http://www.w3.org/1999/xlink" x="0px" y="0px"
	 viewBox="0 0 150 60" style="enable-background:new 0 0 150 60;" xml:space="preserve">
<style type="text/css">
	.st0{fill:#CF262D;}
	.st1{fill:#060606;}
	.st2{font-family:'BalooPaaji2-Medium';}
	.st3{font-size:4.26px;}
</style>
<path class="st0" d="M25,40.2c-3,0-6,0-9.1,0c-2.1,0-2.9-1.4-1.9-3.2c2.6-4.5,5.2-9,7.8-13.5c1-1.8,2.7-1.8,3.8,0
	c1.7,2.8,3.3,5.7,5,8.6c0.4,0.7,0.4,1-0.5,1c-1.3,0.2-2.5-0.5-3-1.7c-0.8-1.6-1.8-3.1-2.7-4.7c-0.5-0.9-0.8-0.9-1.3,0
	c-1.9,3.3-3.8,6.7-5.8,10c-0.3,0.5-0.2,0.9,0.5,0.9h17.7c0.4,0,0.9-0.2,1.2,0.2s-0.2,0.7-0.4,1C36,39.8,35,40.4,34,40.3
	C31,40.2,28,40.2,25,40.2z"/>
<path class="st0" d="M26.8,36.8c-2.4,0-4.7,0-7.1,0c-0.9,0-1-0.3-0.6-1.1c0.4-1.1,1.6-1.8,2.8-1.6c3.1,0.1,6.3,0,9.5,0
	c1.3,0,1.4-0.2,0.7-1.3c-2.8-4.9-5.6-9.7-8.4-14.6c-0.2-0.3-0.3-0.5-0.4-0.8c-0.1-0.4-0.1-0.6,0.4-0.6c1.3-0.4,2.7,0.2,3.2,1.5
	l8.8,15.3c0.4,0.5,0.5,1.1,0.5,1.7c-0.2,1-0.9,1.5-2.2,1.6C31.5,36.7,29.2,36.7,26.8,36.8L26.8,36.8z"/>
<path class="st1" d="M108.2,33.9c0.6-2.2,1.2-4.4,1.7-6.7c0.2-1.1,1-0.8,1.6-0.8s1.2-0.1,1.4,0.8c0.5,2.3,1.2,4.6,1.8,7
	c0.4-1.1,0.7-2.3,0.9-3.5c0.3-1.1,0.6-2.2,0.8-3.4c0.1-0.8,0.5-1.1,1.3-1c0.3,0,0.7,0,1,0c0.4,0,0.6,0,0.5,0.6
	c-1,3.2-1.9,6.4-2.8,9.6c0,0.3-0.3,0.5-0.6,0.5c-2.2,0.2-2.2,0.2-2.8-1.9l-1.5-5.5l-0.8,3c-0.3,1.2-0.7,2.5-1,3.7
	c-0.1,0.5-0.3,0.7-0.8,0.7c-2.1,0-2.1,0.1-2.7-2c-0.7-2.5-1.4-4.9-2.2-7.4c-0.1-0.5-0.5-1,0.3-1.3c1.1-0.3,1.9,0,2.1,0.8
	c0.5,2.2,1,4.5,1.6,6.7L108.2,33.9z"/>
<path class="st1" d="M72.2,26.4c0-1.4,0-2.6,0-3.9s0.9-1,1.7-1.1s1,0.3,1,1c0,4.4,0,8.8,0,13.2c0,0.8-0.3,1.1-1,1.3
	c-1.3,0.4-2.7,0.5-4,0.3c-2.4-0.2-3.9-2-4.2-4.6c-0.1-1,0-2,0.3-2.9c0.7-2.4,3.1-3.8,5.5-3.4L72.2,26.4z M72.2,31.7
	c0-0.8-0.1-1.7,0-2.5s-0.3-1-1-1c-1.7-0.1-2.8,0.9-3,3s0.5,4.3,3.1,4c0.6-0.1,0.8-0.3,0.8-0.9C72.2,33.3,72.2,32.5,72.2,31.7
	L72.2,31.7z"/>
<path class="st1" d="M134.2,34.4l2.1-7c0.1-0.4,0.1-1,0.6-1.1c0.8-0.1,1.6-0.1,2.4,0c0.4,0.1,0,0.5-0.1,0.8
	c-1.4,3.7-2.8,7.4-4.1,11.1l-0.5,1.4c-0.6,1.7-1,1.9-2.8,1.6c-0.6-0.1-0.4-0.4-0.3-0.6c0.4-1.1,0.8-2.2,1.3-3.3
	c0.2-0.4,0.2-0.8-0.2-1.1c-0.4-0.7-0.7-1.4-0.9-2.1c-0.8-2.2-1.6-4.4-2.5-6.6c-0.4-0.9-0.1-1.1,0.8-1.2c1.6,0,1.6-0.1,2,1.5
	C132.8,29.9,133.5,32,134.2,34.4z"/>
<path class="st1" d="M128.3,32.7c-0.1,0.8-0.1,1.6,0,2.4c0.1,1.1-0.3,1.5-1.3,1.7c-1.8,0.5-3.6,0.4-5.4-0.1
	c-1.3-0.4-2.2-1.6-2.2-2.9c-0.1-1.3,0.7-2.4,1.9-2.9c1.1-0.5,2.2-0.7,3.4-0.8c0.4,0,1,0.2,1.1-0.5c0.2-0.6-0.2-1.3-0.8-1.6
	c-1-0.4-2.2-0.4-3.2,0c-1,0.3-1.1-0.2-1.3-0.9c-0.1-0.5,0.1-0.7,0.5-0.8c1.4-0.4,2.9-0.5,4.4-0.3c1.7,0.1,3,1.7,2.9,3.4
	C128.3,30.6,128.3,31.7,128.3,32.7L128.3,32.7z M125.8,33.6c0-1.9,0-1.9-1.9-1.6h-0.2c-1.1,0.2-1.8,1-1.7,1.8s0.8,1.5,2,1.5
	C125.8,35.3,125.8,35.3,125.8,33.6z"/>
<path class="st1" d="M76.8,31.6c0-4,2.7-6.3,6.3-5.4c2.6,0.6,3.3,3,3.2,4.9c0,0.6-0.5,0.7-1,0.8c-1.7,0.3-3.5,0.5-5.2,0.7
	c-0.8,0.1-0.9,0.3-0.6,1c0.4,0.9,1.2,1.5,2.1,1.5c0.8,0.1,1.7,0,2.5-0.2c0.4-0.1,0.8-0.6,1.1-0.1c0.2,0.5,0.3,1,0.3,1.5
	c0,0.4-0.4,0.4-0.6,0.4c-1.4,0.4-2.9,0.5-4.4,0.2C78.3,36.5,76.8,34.5,76.8,31.6z M81.8,27.9c-1.4,0.1-2.6,1.3-2.5,2.7
	c0,0.4,0.2,0.5,0.5,0.4c1.2-0.2,2.3-0.3,3.5-0.5c0.5-0.1,0.6-0.3,0.5-0.8C83.7,28.7,82.8,27.9,81.8,27.9z"/>
<path class="st1" d="M63.8,32.5c0,1.1,0,2.2,0,3.3c0.1,0.4-0.2,0.8-0.6,0.9c0,0,0,0,0,0c-1.8,0.6-3.7,0.6-5.6,0.2
	c-1.5-0.2-2.6-1.5-2.6-3c-0.1-1.5,0.8-2.8,2.3-3.1c0.9-0.3,1.9-0.5,2.9-0.6c0.4,0,1.1,0.3,1.1-0.5c0.1-0.7-0.3-1.4-1-1.6
	c-1-0.3-2.1-0.2-3.1,0.1c-0.7,0.2-0.9,0.1-1.1-0.6s0-1,0.7-1.2c1.5-0.4,3-0.5,4.5-0.2c1.5,0.3,2.5,1.5,2.5,3
	C63.8,30.4,63.8,31.5,63.8,32.5L63.8,32.5z M61.4,33.5c0-0.4,0-0.8,0-1.3s-0.1-0.5-0.5-0.5c-0.8,0-1.6,0.2-2.4,0.4
	c-0.8,0.4-1.2,1.3-0.8,2.1c0.2,0.5,0.6,0.8,1.1,0.9C60.7,35.8,61.4,35.3,61.4,33.5L61.4,33.5z"/>
<path class="st0" d="M11.8,36.8c-1.6,0-1.6-0.1-0.9-1.4L21,18c0.7-1.2,0.8-1.2,1.6,0c0.6,0.7,0.6,1.7,0.1,2.4
	c-3,5-5.9,10.1-8.8,15.1C13.6,36.4,12.7,36.9,11.8,36.8z"/>
<path class="st1" d="M42.2,30.9c0-1.8,0-3.5,0-5.3c0-0.6-0.2-0.8-0.8-0.8c-0.3,0-0.7,0-1,0c-1.5,0-1.5-0.1-1.3-1.5
	c0-0.5,0.2-0.7,0.7-0.7c2.5,0,5.1,0,7.6,0c0.6,0,0.5,0.4,0.5,0.8c0,0.6,0.2,1.4-0.7,1.5c-0.5,0.1-1,0.1-1.5,0
	c-0.7-0.1-0.9,0.2-0.9,0.9c0,3.4,0,6.8,0,10.2c0,0.7-0.1,1-1,1c-1.8-0.1-1.8,0-1.8-1.8L42.2,30.9z"/>
<path class="st1" d="M98.4,37.2c-0.9,0-1.7-0.2-2.6-0.4c-0.7-0.2-0.9-0.6-0.6-1.2s0.2-1.4,1.2-0.9c0.6,0.3,1.3,0.4,2,0.3
	c0.7,0,1.2-0.2,1.3-0.9c0.1-0.6-0.2-1.2-0.8-1.4c-0.6-0.3-1.2-0.5-1.7-0.7c-1.6-0.7-2.3-1.8-2.1-3.2s1.1-2.3,2.8-2.7
	c1.2-0.2,2.4-0.1,3.5,0.3c0.6,0.2,0.8,0.5,0.5,1.1c-0.2,0.4-0.2,1.2-1.1,0.7c-0.6-0.3-1.2-0.4-1.8-0.3c-0.5,0.1-1,0.3-1.1,0.9
	c-0.1,0.6,0.2,1.2,0.8,1.4c0.4,0.2,0.8,0.4,1.2,0.5c2.2,0.9,3,1.8,2.7,3.7c-0.2,1.5-1.6,2.6-3.6,2.7C98.8,37.2,98.6,37.2,98.4,37.2z
	"/>
<path class="st1" d="M88.4,31.8c0-1.4,0-2.8,0-4.2c0-0.6,0.2-1,0.8-1.1c1.4-0.3,2.7-0.5,4.1-0.5c0.6,0,0.6,0.2,0.6,0.7
	c-0.1,1.2-0.7,1.7-1.8,1.6c-0.9-0.1-1.1,0.3-1.1,1.1c0.1,2.2,0,4.4,0,6.6c0,0.7-0.2,1-0.9,0.9c-1.7,0-1.7,0-1.7-1.7L88.4,31.8z"/>
<path class="st1" d="M48.6,31.8c0-1.4,0-2.8,0-4.2c0-0.6,0.1-1,0.8-1.1c1.4-0.3,2.7-0.5,4.1-0.5c0.5,0,0.7,0.2,0.6,0.7
	c-0.2,1.5-0.2,1.6-2,1.6c-0.8,0-1,0.3-1,1c0.1,2.2,0,4.5,0,6.7c0,0.7-0.1,1-0.9,0.9c-1.7,0-1.7,0-1.7-1.7L48.6,31.8z"/>
<path class="st0" d="M94.9,24.1c0.1-0.4-0.2-1,0.2-1.2c0.3-0.2,0.8-0.3,1.2-0.2c0.4,0.1,0.1,0.6,0,0.9s-0.1,0.4-0.1,0.6
	c-0.1,0.5-0.2,1.1-0.9,1S95.1,24.5,94.9,24.1z"/>
<text transform="matrix(1 0 0 1 42.05 42.72)" class="st2 st3">INTE</text>
<text transform="matrix(1 0 0 1 53.04 42.72)" class="st2 st3">R</text>
<text transform="matrix(1 0 0 1 56.16 42.72)" class="st2 st3">M</text>
<text transform="matrix(1 0 0 1 60.14 42.72)" class="st2 st3">ARKET B</text>
<text transform="matrix(1 0 0 1 79.94 42.72)" class="st2 st3">R</text>
<text transform="matrix(1 0 0 1 83.05 42.72)" class="st2 st3">OKE</text>
<text transform="matrix(1 0 0 1 92.58 42.72)" class="st2 st3">R</text>
<text transform="matrix(1 0 0 1 95.76 42.72)" class="st2 st3">A</text>
<text transform="matrix(1 0 0 1 98.9 42.72)" class="st2 st3">GE SE</text>
<text transform="matrix(1 0 0 1 112.38 42.72)" class="st2 st3">R</text>
<text transform="matrix(1 0 0 1 115.47 42.72)" class="st2 st3">VIC</text>
<text transform="matrix(1 0 0 1 123.49 42.72)" class="st2 st3">E</text>
<text transform="matrix(1 0 0 1 126.38 42.72)" class="st2 st3">S</text>
</svg>
